<svg width="170" height="183" viewBox="0 0 170 183" fill="none" xmlns="http://www.w3.org/2000/svg">
<g clip-path="url(#clip0)">
<path d="M83.1012 64.2806C87.4377 66.6471 89.689 69.9904 92.7489 73.1514C93.7566 75.8998 92.2944 79.1698 90.1509 81.5803C88.3741 83.5553 87.0585 85.4423 85.1814 86.773C79.5924 86.3884 73.9577 81.1658 72.08 76.8629C71.8784 76.3953 71.8033 75.7068 72.0251 75.0123C74.0836 69.2671 78.1235 65.1849 82.5264 64.3621C82.5075 64.2926 82.7477 64.0781 83.1012 64.2806ZM78.6892 80.1791C77.401 79.9694 79.1512 79.2701 79.587 79.2263L85.4802 78.6702L89.6811 77.7903C85.3742 77.3186 80.9026 77.3393 76.6649 77.2592C76.2543 77.2587 75.6173 76.4244 76.8364 76.2425C79.6663 75.8096 83.222 75.8511 86.5572 75.3556C87.5494 74.7503 88.6605 75.2693 89.6398 74.8914C84.7517 74.6148 79.5157 74.8431 74.4882 75.0148C75.1425 77.5608 76.9279 79.4636 79.4395 81.4304C80.0075 81.8731 81.7199 81.0348 83.0145 81.1309C83.3873 80.9923 83.836 80.7212 84.2084 80.9931L83.3427 81.3775C83.9047 81.5234 84.7326 81 85.1427 81.4109C83.5632 81.9146 81.9782 81.7109 80.5377 82.1767C82.6718 82.7537 85.1354 82.3457 87.2884 82.9921C87.8945 83.1632 88.8056 81.5726 89.4508 80.6511C88.0043 80.8202 86.5192 81.6713 84.9475 80.8297C85.895 80.6096 87.1519 80.5667 87.6006 80.2956L83.205 80.1837C80.8053 79.8655 80.7037 80.4527 78.6892 80.1791ZM84.0263 73.7298L82.7248 74.158C86.0532 74.1866 88.9144 74.0064 91.8383 74.3315C91.8258 74.1483 91.8327 73.6241 91.5174 73.1501C90.1931 71.1593 87.7951 69.199 85.618 67.3652C83.3059 67.9186 81.1268 68.1375 79.0291 68.9311C81.4609 68.681 84.3728 68.4123 86.9994 69.154C83.2403 70.287 78.9322 71.0468 75.1166 71.9713C79.8477 71.3951 85.2479 71.0848 90.3754 71.9679C88.379 72.5848 86.1613 73.4857 84.1215 73.2563L84.0263 73.7298ZM75.4066 72.4895C74.5791 72.6023 74.5276 73.5117 74.6533 74.1119C78.424 73.9831 83.3129 73.4386 86.7373 72.1726C82.8848 72.1371 79.0639 71.9437 75.4066 72.4895ZM87.3714 75.8806L78.0358 76.8121C82.3495 76.7597 87.0107 76.6129 91.5196 77.1417C92.0627 77.218 92.0326 75.7338 92.1343 75.1465C90.7448 75.1135 89.4369 75.6554 88.1547 75.7425C87.8647 75.2243 87.2393 75.3942 86.8854 75.6022L87.3714 75.8806ZM73.1413 76.6492C74.9821 79.9921 78.0922 83.4753 82.9031 85.116C78.0673 83.109 74.8628 79.2783 73.6663 75.835C73.3703 75.02 73.1309 74.4135 72.9594 75.4301C72.9337 75.8848 72.9774 76.3207 73.1413 76.6492ZM86.3133 79.2648C85.5553 79.3587 84.8543 79.2507 84.153 79.5531L90.0831 79.957C90.2418 79.1677 90.8547 78.8147 91.0954 78.1897C89.4336 78.9395 87.6023 78.6535 85.859 78.8285C86.061 78.8856 86.8186 79.2021 86.3133 79.2648ZM82.4961 69.3325C80.153 69.2228 77.5063 69.6432 75.6609 70.8161C78.3518 70.4209 81.1251 69.7795 83.7148 69.5611C83.5633 69.4157 83.2223 69.3964 82.9066 69.3329C82.7929 69.3265 82.5656 69.3137 82.4961 69.3325ZM81.4905 83.0746C83.0618 84.3267 85.0321 84.575 86.3593 83.6922C85.9303 83.2117 85.6206 83.4451 85.0333 83.3434C83.8777 83.2096 82.5895 82.9999 81.4905 83.0746ZM80.0668 67.1195C79.2457 67.1187 78.2539 67.3135 78.0382 68.3048C79.226 67.8703 82.3905 67.5703 82.9782 67.2615C82.0499 67.1405 81.071 67.1079 80.0668 67.1195ZM80.2508 66.286C81.1851 66.7038 82.632 66.1243 83.5727 66.4284C83.5161 66.2199 83.106 65.809 82.7272 65.6507C81.8306 65.3719 81.0658 65.99 80.2508 66.286Z" fill="white"/>
<path d="M93.4676 24.9757C109.514 33.2278 121.382 44.3683 132.342 55.0467C139.518 59.6267 143.314 65.4979 144.324 72.2378C140.148 79.9387 134.312 86.7475 128.44 90.5435C126.001 92.1389 122.174 92.0592 119.151 89.4477C104.019 76.3208 87.1815 63.9185 73.6099 50.6289C70.4111 47.5057 69.6766 43.1534 72.7573 38.2871C76.5338 32.411 80.3094 27.3559 84.8787 24.3985C87.2929 22.8473 90.5638 23.4885 93.4676 24.9757ZM87.9412 25.0964C82.1918 27.1431 76.8298 33.226 73.1468 40.2706C70.5397 45.2321 73.9076 49.8019 77.6118 52.8625C92.397 65.2627 105.938 77.8891 122.467 89.7038C123.584 90.5196 125.2 90.5655 126.559 89.9353C131.639 87.6226 135.794 82.3153 139.867 76.8437C143.175 72.4008 142.914 68.1437 140.315 64.8948C140.302 65.5327 141.241 66.6578 140.124 66.2525C139.385 66.0054 139.627 64.1488 140.233 64.32C135.8 58.025 127.291 53.21 122.093 47.5332C114.813 39.549 104.563 32.4459 93.3719 25.8598C91.3206 24.6261 89.2302 24.4851 87.3921 24.7232C87.613 24.8497 88.1055 25.0144 87.9412 25.0964ZM84.1697 26.0462C84.9277 25.9522 86.0271 25.467 86.9623 25.0638C87.0571 25.0007 87.411 24.7927 87.4804 24.7738C86.2176 24.5199 85.2503 25.4915 84.1697 26.0462Z" fill="white"/>
<path d="M117.025 93.1592C119.689 94.4503 121.575 96.5869 123.127 98.5906C123.63 100.581 121.708 102.297 120.526 103.849C116.674 109.037 112.205 113.049 107.653 117.718C104.368 118.536 98.9082 115.056 98.0214 111.38C98.8964 108.008 101.609 105.219 103.645 102.689C106.832 98.7634 109.514 94.4904 113.463 93.2313C114.6 92.8851 115.826 92.5895 117.025 93.1592ZM110.051 106.769C108.232 106.666 105.777 105.729 103.901 105.828C106.761 106.879 110.492 108.253 113.086 109.974C109.455 109.244 105.932 108.634 102.483 108.302C104.87 108.848 108.311 110.114 110.766 111.873L104.281 110.799C106.017 111.558 108.119 112.293 109.754 113.64C108.099 113.866 105.561 113.175 103.395 112.345C105.347 112.113 106.64 113.441 108.346 113.127C106.938 112.203 103.421 111.48 103.119 110.779C102.228 110.797 100.656 110.776 100.701 109.57C103 109.654 105.747 110.289 108.058 110.967C106 109.847 103.209 109.187 101.006 108.218C100.841 109.121 99.9737 110.737 99.2474 110.673L99.3791 111.57C100.396 111.332 102.619 111.549 103.458 112.44C104.297 113.331 102.101 111.839 101.121 112.627C103.256 112.793 106.425 113.611 108.155 114.895C106.178 115.171 103.936 114.474 101.934 114.794C103.714 115.99 105.822 117.432 106.972 116.448C109.513 114.265 112.086 111.514 114.906 108.845C114.906 108.845 116.48 107.634 114.983 107.892C113.783 108.143 110.241 106.232 110.051 106.769ZM107.219 103.621C107.534 104.505 108.987 103.812 109.15 104.551C107.812 104.43 105.999 104.213 105.135 102.955C104.749 103.732 103.782 104.293 103.472 104.937C107.002 105.433 110.677 106.188 114.181 107.139C112.793 106.285 110.615 105.683 109.138 104.778C111.373 105.179 113.93 105.939 116.095 107.179C116.537 107.432 116.949 106.201 117.625 105.943C117.423 105.886 116.57 105.632 116.394 105.531C113.193 104.46 110.521 104.515 107.219 103.621ZM120.784 98.4809C119.957 98.1832 117.311 97.3721 116.339 96.8153C116.207 96.7393 115.139 96.6562 116.042 97.2318C116.705 97.6114 118.63 98.6555 119.217 99.1677C119.785 99.6103 121.224 99.9655 120.617 101.026C117.555 99.9175 114.101 98.8782 111.083 98.2057C113.855 99.2064 117.27 100.928 120.161 102.642C120.976 101.936 121.723 100.838 122.172 99.7454C122.362 99.2088 121.788 98.8798 121.39 98.652C121.352 98.513 120.942 98.5126 120.784 98.4809ZM109.505 97.8883C108.835 98.4434 108.234 99.3901 107.62 100.154C111.459 100.827 115.361 102.006 119.283 102.843C118.197 102.28 117.118 101.603 115.988 101.015C113.911 99.8254 111.581 99.0778 109.505 97.8883ZM107.013 100.804L105.59 102.571L117.297 105.286C116.496 104.533 115.467 104.179 114.621 103.811C112.07 102.527 109.81 102.171 107.013 100.804ZM110.187 97.1058L118.939 99.6537L111.781 95.5538L110.187 97.1058ZM114.616 102.283C114.508 102.573 114.186 102.213 113.984 102.156L109.672 101.387C112.468 102.344 115.253 103.117 118.358 105.072L119.724 103.507C117.925 103.063 115.822 102.739 114.162 101.847L114.616 102.283ZM102.713 105.852C102.214 106.211 101.24 107.297 102.055 107.411C104.562 107.849 107.132 108.383 109.443 108.65C108.976 108.441 107.524 107.903 107.057 107.694C106.968 107.644 106.823 107.384 106.735 107.334C105.314 107.048 103.856 106.624 102.713 105.852ZM115.294 93.9279C114.315 93.8953 113.443 94.3934 112.703 94.9674L119.819 97.3999C118.506 96.4133 115.785 95.7347 114.541 94.7292C116.013 94.516 117.226 94.8583 118.059 95.0423C117.22 94.5615 116.588 94.024 115.723 93.9978C115.635 93.9472 115.363 93.909 115.294 93.9279ZM99.8266 112.531C100.376 112.904 100.646 114.174 101.334 114.099C103.166 113.974 104.707 114.563 106.69 114.584C106.008 114.135 105.402 113.964 104.796 113.793L99.8266 112.531ZM117.225 95.6793C118.178 95.7561 119.422 96.3511 119.971 96.7242C119.605 96.3386 118.911 95.2958 118.033 95.497C117.781 95.5283 117.086 95.3066 117.225 95.6793Z" fill="white"/>
<path d="M70.8631 81.0364C75.4025 82.6389 78.3102 86.4755 80.3213 90.0333C79.9825 94.0056 76.245 98.7891 73.0033 100.453C71.2034 100.42 69.5432 99.5275 67.896 98.4079C64.8665 96.3206 62.0709 94.1326 60.1224 91.0801C60.9099 86.8367 64.7101 82.5585 68.0971 80.743C68.9186 80.3333 70.0108 80.7829 70.8631 81.0364ZM64.4507 89.1582L78.1494 89.3174C77.6055 90.0621 75.4769 90.1926 74.2325 90.4187L73.9545 90.4942L73.7396 90.6645C71.1242 91.3376 67.2781 91.1884 64.8081 91.7101C68.1935 91.5367 72.071 91.9386 75.5383 91.9295C76.4035 91.9556 78.0521 91.8436 78.2155 92.5827C77.5712 92.6831 75.9922 92.7762 75.2719 93.0092C74.2926 93.3871 74.3818 92.6167 73.4788 92.4516L73.327 92.7167L72.4613 93.1011L72.8084 93.4172C70.7995 93.8509 67.7933 93.7721 65.9737 94.4902C69.5105 94.4623 73.3125 94.5861 77.032 94.9562C78.0191 93.2331 79.1446 91.8826 78.8744 90.6129C78.5852 89.2737 78.2334 87.4291 76.7174 87.617C72.2579 88.2314 67.6658 88.7699 62.9982 89.0304C63.2311 89.7506 64.0024 89.0188 64.2795 89.7643L64.4507 89.1582ZM73.057 84.9923L65.1799 86.3484C68.9629 86.4028 73.1368 87.2092 77.526 87.4347C76.2957 86.2019 75.0654 84.969 73.9355 84.3805C73.8154 84.4878 73.5623 84.9296 73.057 84.9923ZM64.3018 86.5496C63.3924 86.4982 63.0947 87.3252 62.646 87.5963C61.6538 88.2016 62.5821 88.3226 62.9484 88.2977L70.648 87.6614C70.8311 87.6489 70.9324 87.4722 70.983 87.3838C68.7034 86.9583 66.5311 86.653 64.3018 86.5496ZM62.6563 89.8321C62.5169 90.2804 62.7434 91.1143 63.5014 91.0204L72.976 90.0511C70.1152 89.8208 67.1343 89.6978 64.2795 89.7643L62.6563 89.8321ZM65.6182 83.8415C65.1635 83.8158 64.4742 84.7119 64.309 85.6149L72.3565 84.4737C72.2179 84.1009 71.6937 84.094 71.3969 84.1C69.4202 83.9654 67.513 83.8119 65.6182 83.8415ZM73.3712 92.742L73.523 92.4769C70.4726 92.3727 66.9928 92.1986 63.9673 92.4608C64.377 93.2823 64.8566 93.6743 65.4314 93.5928L72.1774 92.8797C72.5501 92.7412 72.9988 92.47 73.3712 92.742ZM65.8845 95.2606C66.4335 95.6338 66.7167 96.6762 67.2031 96.5441C69.0606 95.9649 73.2923 95.7482 74.2021 95.3891C71.1393 95.1018 68.493 95.1117 65.8845 95.2606ZM68.9838 96.9185C70.5049 97.8485 72.0093 96.6564 73.4738 97.3778C74.8941 98.074 75.7868 96.0034 76.2419 95.6186C73.7402 96.2981 71.3903 96.7126 68.9838 96.9185ZM70.1108 81.8377C68.7788 81.1921 67.6283 82.1762 66.2381 82.9643L72.1179 83.0461C71.7962 82.6857 71.2282 82.243 70.7864 81.99C70.6791 81.8699 70.1991 81.8883 70.1108 81.8377ZM62.4578 92.5351C62.067 91.7831 61.8786 90.6776 61.3741 89.9192C61.152 91.0243 61.9469 91.8903 62.4578 92.5351Z" fill="white"/>
<path d="M96.5961 115.61C100.346 117.054 102.528 120.005 102.405 122.986C99.7471 128.447 95.7012 132.232 91.4163 135C88.4792 135.313 84.1624 132.195 83.1294 129.491C82.5373 127.861 83.3978 126.358 84.2832 125.222C86.4524 122.357 88.7173 118.608 91.2962 116.564C92.6109 115.498 94.5632 114.856 96.5961 115.61ZM90.7349 128.096L91.6881 128.584C89.7428 128.702 87.6652 128.333 85.7323 128.634C88.3722 128.738 91.8958 129.348 95.0457 130.918C96.5565 129.612 98.3393 127.934 99.9461 125.333C98.4555 125.477 96.6362 125.785 95.5505 125.221L95.4175 125.556L86.9479 125.693C89.9919 125.91 94.1787 126.489 97.3475 128.128C95.225 128.556 94.1706 128.245 92.0931 127.877L91.6825 127.876C91.5118 128.072 91.2214 127.964 91.0193 127.907L90.7349 128.096ZM90.1596 122.544C89.408 122.525 89.2939 122.929 90.0643 123.018C93.3481 123.432 97.0111 123.593 100.446 124.563C100.85 124.677 101.655 122.146 101.036 122.202C97.4164 122.476 93.8731 122.618 90.1596 122.544ZM91.7267 127.902L92.1372 127.902C93.2491 127.6 94.4927 128.195 95.8826 127.817C92.1068 126.828 88.3177 126.477 85.1476 126.07C84.7182 126 83.3078 127.95 84.5711 127.793C86.8262 127.442 88.9414 127.949 91.0635 127.933C91.2342 127.737 91.5058 127.775 91.7267 127.902ZM91.6652 120.121C90.5734 119.261 88.5642 120.105 88.076 121.879C91.2783 121.718 95.3582 121.766 98.7754 121.435L91.6652 120.121ZM86.9886 122.958L85.7489 124.712L98.1655 124.959C97.9823 124.971 97.2942 124.636 97.0669 124.623L86.9886 122.958ZM92.6946 132.564C90.4472 131.57 87.8262 131.536 85.8499 130.99C86.0262 131.502 87.5972 133.165 89.0308 133.223C90.2057 133.016 91.475 133.156 92.6946 132.564ZM85.1888 128.969C84.5509 128.955 84.0259 129.77 84.91 129.865C86.7224 130.082 91.2313 130.611 92.4251 130.473C89.8367 129.46 87.4182 129.072 85.1888 128.969ZM91.6934 117.203L100.091 119.138C98.6586 118.258 97.744 117.089 96.4112 117.264C95.4701 117.371 93.601 116.946 91.6934 117.203ZM91.7054 117.796C91.1559 117.834 90.5618 118.256 90.3907 118.862L96.9209 119.141C96.5863 119.008 95.6267 118.634 95.3109 118.571C94.5911 118.393 92.3686 117.766 91.7054 117.796ZM94.3244 119.883L100.683 121.178C100.5 120.78 100.577 119.827 99.5981 119.794C97.9813 119.748 96.0299 119.569 94.3244 119.883ZM88.3765 130.677C89.7969 131.373 91.5775 131.748 93.2823 132.255C93.6863 132.369 94.1355 131.687 94.6159 131.258C92.5946 131.509 90.5428 130.686 88.3765 130.677ZM91.2726 133.51C90.5274 133.376 89.7819 133.653 89.0497 133.293C89.5228 133.798 90.754 134.21 91.2726 133.51Z" fill="white"/>
<path d="M30.567 95.0416C35.2008 96.9915 39.2456 100.482 42.1601 103.794C42.8478 104.54 42.4866 105.683 42.0499 106.548C40.4234 109.9 38.273 112.835 35.8074 115.295C32.2564 116.782 26.6454 113.157 24.3186 109.536C20.7397 107.486 19.6079 102.496 22.8701 99.2589C23.8194 97.3967 25.3178 95.9078 26.7968 94.7598C27.7259 94.0597 29.4307 94.5667 30.567 95.0416ZM31.3331 111.735C32.1859 111.578 33.5247 111.699 34.5538 112.054C34.8443 112.162 36.0312 112.548 35.1403 112.977C34.3441 113.342 33.5415 113.821 32.2147 114.294C35.1004 114.89 37.3447 112.714 38.5664 110.069C37.4794 110.737 35.3577 110.343 34.6443 110.052C35.6296 109.971 37.436 109.891 37.2155 109.353C33.6662 109.198 30.1736 109.252 26.6363 109.69C25.992 109.79 25.7466 108.887 26.4604 108.768L35.9101 107.432C36.5356 107.262 37.8688 106.676 37.9945 107.276C38.4998 107.214 39.7447 106.577 39.4036 106.558C35.7089 106.554 31.4643 106.998 27.8455 106.862C26.9108 106.855 24.781 108.217 24.6626 106.682C28.2762 105.7 31.9078 105.609 35.4326 104.987L35.6853 104.956L35.9633 104.881L35.6853 104.956L35.4326 104.987L34.8703 105.252C35.192 105.613 35.6218 105.272 36.2091 105.374C35.615 105.796 33.821 106.06 34.2568 106.016C36.4171 105.727 38.7919 105.679 41.1096 105.833C41.5643 105.859 41.7487 104.615 41.3893 104.116L37.1944 105.292L38.7807 104.265L22.4602 104.892C23.4113 107.432 25.5184 109.695 27.8345 111.491C29.3573 110.779 31.1954 110.541 32.8817 110.568L33.1155 110.467L33.3934 110.392L33.7027 110.569L34.4161 110.86L31.2323 111.501L31.3331 111.735ZM26.6735 104.195L39.893 103.552L40.1774 103.363C39.4391 102.705 39.0174 101.29 38.1522 101.264C36.7186 101.206 35.3283 101.994 33.9702 102.213L33.7364 102.314C31.1399 103.057 28.4301 103.382 25.8211 103.942C25.9537 104.018 26.1682 104.258 26.6735 104.195ZM23.7522 101.407C23.3725 102.07 22.3546 103.13 22.796 103.794C26.7314 103.172 31.5894 101.965 35.1837 101.324L23.7522 101.407ZM26.1359 98.7823C28.8954 99.1893 31.3461 99.0086 33.841 98.8533C34.0684 98.8661 35.4955 99.0381 34.4162 98.3612C33.4695 97.7603 32.1886 96.6158 31.5314 96.9436C30.1729 97.5738 27.2482 98.0697 26.1359 98.7823ZM35.1541 99.4294L27.6309 100.577L37.3191 100.669C36.9978 99.8986 35.5835 99.4993 35.0473 98.8987L35.1541 99.4294ZM39.2999 109.198L40.4199 107.14C39.6108 107.733 38.6701 107.429 37.8298 107.769L37.9439 107.365C37.2931 107.579 36.5793 107.698 35.8595 107.521C34.6147 108.157 36.7183 107.66 36.56 108.039L34.6584 108.593C36.0981 108.948 37.8538 108.956 39.2999 109.198ZM28.8443 112.187C29.4431 113.293 31.0217 113.61 32.2405 113.839C32.696 113.044 33.738 113.171 34.5847 112.717C33.4801 112.084 32.0967 112.348 30.9222 112.145C30.2968 112.315 29.5769 112.137 28.8443 112.187ZM26.1166 99.1233C25.22 98.8445 24.6255 99.6776 24.4608 100.17C25.1115 99.9559 28.7496 99.7512 28.074 99.599C27.5562 99.4784 26.8553 99.3704 26.1166 99.1233ZM27.9697 96.6052C27.5403 96.5353 26.7682 98.0882 28.2472 96.9402C28.2219 96.9844 32.4412 96.5845 29.6817 96.1775C28.2798 95.9613 29.3715 96.8214 27.9697 96.6052ZM24.2923 104.357C24.8289 104.547 25.65 104.548 25.8653 103.967L24.2923 104.357Z" fill="white"/>
<path d="M80.7392 132.229C84.2366 133.704 86.6153 136.006 87.6736 138.666C84.3402 143.563 80.9996 149.396 76.64 151.065C75.3132 151.537 73.829 151.567 72.6489 150.657C70.0866 148.778 68.1562 146.616 67.5208 144.14C70.3051 138.869 73.9036 134.123 77.8029 131.721C78.9088 131.122 80.0258 131.938 80.7392 132.229ZM72.9228 142.187C72.1837 142.351 71.4514 141.99 70.9212 141.686C70.6561 141.535 71.0988 140.967 71.5724 141.062L82.7874 142.791C79.0566 141.006 75.3563 140.295 71.7126 139.793C71.0117 139.684 70.264 142.014 69.2839 143.213C68.6452 144.021 68.8206 145.354 69.5147 145.986C69.8618 146.302 72.0911 146.406 72.7226 146.533L73.1584 146.489C74.8194 146.56 76.2461 147.142 77.4404 146.594C75.6035 145.601 73.7409 145.062 72.0044 144.713C71.3288 144.561 69.8257 144.521 70.035 143.643C71.8289 143.38 73.5907 143.685 75.3649 144.173C76.9191 143.714 78.0859 145.262 79.8738 144.702C77.9104 143.929 76.2692 143.107 74.4066 142.568C74.1604 142.486 72.3231 141.903 74.1102 142.163C73.6494 141.841 73.2642 141.796 72.9168 141.891L72.9228 142.187ZM72.1911 147.46C73.7761 147.664 75.3166 148.253 76.6168 149.056C76.7052 149.107 76.7365 149.36 76.7425 149.657C79.0109 148.667 81.0471 146.137 82.8371 143.524C81.195 143.522 79.6426 142.34 78.209 142.281C78.076 142.616 78.7645 142.541 78.8147 142.863L75.651 142.342C77.0396 143.196 79.3187 144.032 80.9347 144.899C81.6416 145.304 80.3719 145.574 80.0562 145.511C78.4145 145.098 76.7977 145.052 75.428 144.268C75.1183 144.501 75.2757 144.944 74.19 144.38C73.767 144.197 73.1412 144.777 73.0339 144.657C74.3221 144.867 76.8037 145.349 78.3751 146.601C78.8105 146.968 78.69 147.486 78.1658 147.479C76.5932 147.459 75.1407 147.331 73.6504 147.064C73.2335 147.177 72.7723 147.265 72.3747 147.037C71.491 146.531 71.8501 147.441 72.1911 147.46ZM82.0442 134.561C82.2454 135.439 83.3573 135.137 83.8364 135.94C82.6619 135.736 80.2309 135.166 80.2052 135.62C81.7268 136.14 84.1771 136.37 85.609 138.07C81.7693 137.807 78.4289 137.185 75.1198 136.815C78.2706 137.564 81.6548 138.622 85.0068 140.248C85.5378 139.731 86.385 138.867 86.0573 138.209C85.4206 136.964 83.6039 134.809 81.8932 134.005C81.994 134.239 82.0253 134.492 82.0442 134.561ZM73.5914 136.82C73.313 137.306 73.0977 137.887 72.4024 138.486C76.0018 138.963 79.7343 139.106 83.8318 140.455C83.1884 139.735 82.4939 139.513 81.913 139.298L73.5914 136.82ZM75.2812 139.607C77.9078 140.348 80.7429 141.033 83.6341 142.337C84.0129 142.496 84.8734 140.993 84.785 140.943C81.0345 139.909 78.3063 139.755 75.2812 139.607ZM79.8071 135.803C79.6051 135.746 77.9943 135.997 78.6584 135.145C78.1646 136.212 77.3702 134.935 76.6756 134.713C75.6465 134.359 75.1022 135.514 74.666 135.968C77.0403 136.331 80.9491 136.985 82.9511 137.076C81.9979 136.588 81.0383 136.215 79.8071 135.803ZM76.752 134.17L81.526 134.851C80.8319 134.219 80.5235 133.221 79.6394 133.125C78.5721 133.042 77.4538 133.457 76.752 134.17ZM75.3217 149.371C75.5869 149.523 75.8528 148.854 75.335 148.733C73.6869 148.435 72.3232 147.947 70.9342 147.503C72.0508 148.73 74.1653 150.058 75.5611 149.977C75.7885 149.99 75.8708 149.744 75.9403 149.725L75.3217 149.371ZM73.5809 147.083L73.2214 146.584L72.7856 146.627L72.0465 146.791L72.3052 147.056C72.7286 146.829 73.164 147.196 73.5809 147.083Z" fill="white"/>
<path d="M43.5661 81.3623C48.6671 83.5211 51.7141 86.9095 52.0012 90.3013C51.0121 94.0771 48.6339 97.4094 46.1001 98.6573C45.6072 98.9032 46.5342 100.256 45.1516 99.6985C44.817 99.5655 44.1346 99.9374 43.8441 99.8298C38.1684 97.7524 34.8507 93.5048 31.7603 89.2701C33.0454 86.3094 35.2524 83.5832 37.3706 81.217C39.1023 80.0377 41.426 80.4885 43.5661 81.3623ZM45.6413 90.238L45.9193 90.1625L46.1972 90.087L46.848 89.8729C46.8287 90.2139 46.437 90.283 46.1972 90.087L45.9193 90.1625L45.6413 90.238L45.2621 90.4902C45.5902 90.7369 45.9317 90.3457 46.2534 90.706C44.3454 91.3735 42.0401 91.4027 40.2899 92.102C43.5553 92.0359 46.8334 91.7424 50.3192 92.2133C50.6924 91.6642 51.2934 90.7175 50.8901 89.7823L46.999 90.4289C47.4794 89.9999 48.0731 89.9879 49.0589 89.4962C44.1832 89.4028 39.4778 89.5243 35.126 89.8483C35.3272 90.7264 35.6545 91.7941 36.1156 91.7062C38.6804 91.1214 41.6806 90.9034 44.4222 90.4199C44.7949 90.2813 45.2436 90.0102 45.6413 90.238ZM36.8977 92.7996C37.0423 93.4692 37.6917 94.4867 38.1023 94.4871L45.5118 93.3326L45.7833 93.3707L46.2698 93.2386L45.7833 93.3707L45.5118 93.3326C45.3158 93.5724 44.6968 93.6286 45.3342 94.0524C43.3949 94.4672 41.1085 94.566 39.0362 95.3154C42.2637 95.1103 45.4029 94.8546 48.5665 95.3757L50.167 92.8889C48.9543 92.9571 47.7343 93.9601 46.459 93.523C47.0338 93.4415 47.4194 93.0756 47.8115 92.596L39.2978 92.7073C39.127 92.9029 38.8366 92.7952 38.5904 92.7129C38.11 93.1419 37.3588 92.7116 36.8977 92.7996ZM43.7936 87.4193C44.3878 86.9967 44.9051 87.5278 45.7394 86.8908C41.6977 86.5708 37.7812 87.2616 34.2315 87.5169C33.7515 87.5353 34.1668 89.0642 34.9248 88.9702C37.704 88.6257 40.4456 88.1422 43.2441 87.4566C43.2441 87.4566 43.4462 87.5137 43.5346 87.5643L43.7936 87.4193ZM50.4804 88.9608C50.2097 88.1016 49.725 86.5917 49.0995 86.7616C47.8676 87.1708 45.4671 87.6736 44.1531 87.9186L39.3457 89.0379C43.0533 88.8143 46.748 88.8181 50.4804 88.9608ZM37.1631 86.4967L37.441 86.4212C40.7128 86.2414 44.1548 86.2765 47.439 86.2799C46.0015 83.8721 43.039 84.2291 41.5917 85.2192L36.1906 86.3505L37.1631 86.4967ZM42.2046 97.365C42.2741 97.3461 42.4761 97.4031 42.4761 97.4031C44.1941 97.2723 45.4583 96.2946 46.3874 95.5945C44.4485 95.5988 41.4929 95.4316 39.3262 95.8336C40.4496 96.5358 41.1244 97.5091 42.2046 97.365L42.3058 97.1882L42.2046 97.365ZM41.4299 82.838C39.9332 82.6849 38.5932 83.7951 37.3294 84.3622C39.5524 84.5792 41.656 84.0824 43.93 83.8005L42.3582 82.9589C42.0738 83.1481 41.7268 82.832 41.4299 82.838ZM42.6653 97.6875C42.9613 98.5026 44.0599 98.8384 44.7235 98.397C45.6715 97.7664 47.03 97.1362 48.0355 95.893C46.0957 96.7184 44.4657 97.3104 42.6653 97.6875ZM36.1734 84.6389C34.7578 85.4711 35.8946 85.5355 36.4252 85.4286C36.9558 85.3218 37.417 85.2338 37.8151 85.0511C37.0635 85.0314 36.3377 84.557 36.1734 84.6389ZM38.8089 82.8037C38.9664 83.246 40.7672 82.4583 39.6175 82.6214C39.1817 82.6651 38.727 82.6394 38.8089 82.8037ZM34.1209 90.681L33.3011 89.4486C33.1553 90.0105 33.7233 90.4532 34.1209 90.681ZM34.9397 86.6903C35.3756 86.6465 36.1078 87.0072 36.1906 86.3505C35.7359 86.3248 35.1611 86.4063 34.9397 86.6903Z" fill="white"/>
<path d="M101.186 80.038C105.276 82.7327 108.348 86.0769 110.296 89.9504C108.548 94.6412 104.799 98.4205 101.317 99.8885C99.3081 100.733 97.3266 99.0697 95.4778 97.4826C93.3449 95.6741 90.9027 93.6885 89.2438 91.5647C88.9877 88.836 91.0376 85.2571 92.5248 82.3534C94.7434 80.6314 97.2399 78.834 100.321 80.0119C100.479 80.0436 101.053 79.9621 101.186 80.038ZM93.63 88.6197C93.7248 88.5567 93.8196 88.4936 93.8638 88.5189C97.2174 88.5034 100.514 88.2794 103.881 88.447C105.245 88.5242 107.594 88.5203 108.149 89.1903C106.324 89.6116 104.46 89.8939 102.812 89.1849L101.808 89.607L103.892 89.8618L97.815 90.8408C101.061 90.7052 104.75 90.4121 108.577 91.3128C106.794 92.991 104.634 92.4583 103.011 92.9366L101.981 93.4029C103.402 93.6886 105.012 93.4376 106.205 94.5315C103.924 95.7481 101.707 95.8279 99.426 96.634C100.651 96.7489 102.028 97.0093 103.184 96.7326C105.035 96.2671 106.66 93.7361 108.191 92.0893C109.891 90.2468 108.195 87.9841 106.895 86.7701C105.942 85.8723 103.938 87.4239 102.689 86.5321C102.43 86.6771 102.082 86.7715 101.773 86.5944L101.476 86.6004C101.217 87.1559 102.442 86.8603 103.067 87.1009C99.1508 87.7917 95.3484 88.0783 91.489 88.567C92.1517 88.9466 92.733 88.7514 93.2126 89.1435C92.8595 88.5305 93.3837 88.5374 93.63 88.6197ZM102.386 92.696L102.67 92.5068C104.098 91.8577 105.543 92.9203 106.701 91.412C102.021 91.0788 97.3977 91.3646 92.9192 91.9095C93.4555 92.51 93.9531 93.7926 94.4142 93.7047L101.843 92.6196C101.843 92.6196 102.089 92.702 102.108 92.7715L102.386 92.696ZM103.879 83.6344L92.9448 85.4106C97.0565 85.3011 101.969 85.944 106.227 85.6831L104.795 83.9827C104.346 84.2538 104.296 83.5212 103.879 83.6344ZM99.7743 95.7186L100.084 95.4852C101.227 95.4358 103.836 95.2869 104.355 94.1759C101.191 94.0653 98.0137 94.182 94.9376 94.5326C95.712 96.9712 98.1446 95.9001 99.4332 95.6993L99.7743 95.7186ZM91.5508 89.8934C91.5062 90.2786 91.8339 90.9358 92.4152 90.7406C95.6813 89.8534 99.1487 89.8443 102.453 89.0961L93.1937 89.074C92.4735 89.3069 91.6529 88.8956 91.5508 89.8934ZM101.824 86.506L102.437 86.1529C99.14 85.9664 95.8241 86.1209 92.5588 86.1871C92.0346 86.1802 91.6232 87.0008 91.4963 87.6323L101.552 86.4678L101.824 86.506ZM97.5685 97.2131C98.0164 97.7631 98.7294 98.4648 99.6572 98.9963C100.762 99.629 102.337 97.5969 103.246 97.2379C101.346 96.9707 99.4131 96.8613 97.5685 97.2131ZM101.424 82.2867C99.3711 82.2846 96.6429 82.1302 94.9052 83.0126C97.6527 82.826 100.337 82.955 103.21 83.3685C103.103 82.8379 102.39 82.5466 101.79 82.2618C101.746 82.2365 101.493 82.2678 101.424 82.2867ZM95.2333 83.2593C94.6902 83.1829 94.2351 83.5677 94.127 84.2687C95.2702 84.2193 98.2327 83.8623 99.0224 83.6105C97.7531 83.4703 96.5468 83.4248 95.2333 83.2593ZM96.1886 81.694C97.4515 81.9479 98.9044 81.6652 100.187 81.578C100.098 81.5274 99.145 81.0401 98.943 80.9831C98.0276 80.6348 96.7831 80.8609 96.1886 81.694ZM90.3694 90.2143C90.1091 91.5908 92.8039 93.5451 92.0909 92.8434C91.3149 92.0468 90.855 90.9032 90.3694 90.2143ZM101.208 95.7769C100.842 95.3912 100.399 95.9592 100.059 95.5294L99.7489 95.7627L99.4079 95.7435C99.1042 96.2737 100.69 96.0669 101.208 95.7769ZM103.011 92.9366C103.762 92.9563 102.733 92.6016 102.645 92.551L102.36 92.7402L102.057 92.8599C101.539 93.1499 102.714 92.9426 103.011 92.9366Z" fill="white"/>
<path d="M87.6237 94.803C91.1842 96.3729 94.1879 98.9149 96.3581 101.273C97.4305 102.474 97.561 104.603 96.2582 106.262C94.0195 109.146 91.7872 111.917 89.3799 112.944C86.1776 113.105 82.751 110.379 81.0295 107.75C80.7065 108.621 78.4454 108.676 79.7915 107.862C80.9733 107.131 79.1866 106.46 78.7893 105.821C78.1021 104.665 76.8405 103.179 77.4856 102.258C79.4528 99.3357 81.1493 95.5543 83.6828 94.7169C84.9147 94.3076 86.3106 94.2269 87.6237 94.803ZM81.7954 99.856C80.9495 99.4888 82.7314 98.6317 83.4388 98.6261C84.9041 98.5265 82.4667 98.0693 82.1317 98.3468C81.8473 98.536 81.2592 99.2554 81.019 99.4699C81.8039 97.6897 80.4381 99.2546 80.5892 99.8105C80.0581 100.328 77.453 103.237 79.4855 104.401C79.4662 104.742 80.1607 104.964 80.6914 104.857C83.9446 104.197 87.3554 103.98 90.7035 103.257L90.5829 103.774C90.8862 103.655 91.1895 103.535 91.4735 103.756L91.7073 103.656L93.925 102.755C90.4516 102.467 86.877 102.356 83.4852 102.643C81.4077 102.274 82.1524 102.818 79.8784 103.1C79.2341 103.201 79.153 102.215 79.709 102.064C82.4634 101.353 85.4005 101.041 88.3758 100.456C88.3063 100.475 88.5337 100.488 88.6032 100.469C89.6271 99.7061 90.8956 100.667 92.0143 99.8411C89.6082 99.6366 86.9555 99.7602 84.6124 99.6504C83.7785 99.8769 82.6855 100.248 81.7954 99.856ZM83.2018 108.055L84.1919 109.503C85.7143 109.201 87.7862 108.862 89.8572 109.344C88.2718 109.551 86.0231 109.789 85.4668 110.35C86.4392 110.496 86.7983 111.406 87.5812 111.679C89.7089 112.369 91.574 110.445 92.978 108.608C92.3212 108.526 91.4427 109.137 90.8683 108.808L90.357 108.574C90.5719 108.404 90.7422 108.619 90.8683 108.808L92.9346 107.762C89.6633 107.531 86.4229 107.964 83.3661 107.973L83.2018 108.055ZM81.322 105.805C79.9514 105.841 81.6176 107.03 81.9839 107.006C85.066 106.952 88.0791 106.507 91.0038 106.011L91.2753 106.049L91.0038 106.011C91.546 106.908 89.1524 106.887 89.9164 107.089C90.7499 107.273 92.0514 106.845 93.0487 107.358C94.2923 107.953 94.6346 106.741 94.9889 106.122C94.433 106.273 93.5738 106.544 92.7214 106.29C93.5553 106.064 95.2042 105.541 94.7054 105.49C91.6803 105.342 86.4632 105.64 83.52 105.656C83.4063 105.649 82.9079 105.188 82.3455 105.452C82.6042 105.718 82.5535 105.806 82.2884 105.654L82.0105 105.73C81.8462 105.812 81.6188 105.799 81.322 105.805ZM95.3972 102.131C93.8653 99.3757 91.0663 100.472 89.6636 101.077L89.1711 100.912L88.8932 100.987L88.6594 101.088C87.7495 101.447 86.7518 101.345 85.8355 101.818L95.3972 102.131ZM95.767 104.866C96.1025 104.178 96.5327 103.427 96.0913 102.763C94.8464 103.4 93.4381 103.297 92.0672 103.744C92.0672 103.744 91.8209 103.662 91.7073 103.656L91.4735 103.756C89.894 104.26 88.1382 104.252 86.5335 104.8L95.767 104.866ZM87.7168 96.382C86.5363 95.8819 85.1211 96.3036 83.7501 96.7506C83.4469 96.8703 82.7069 97.8548 83.4838 97.8303C85.726 97.7063 88.0055 98.1318 90.2795 97.8499C89.9518 97.1927 88.9544 96.6801 88.3418 96.6227C88.1145 96.6098 87.9189 96.4391 87.7168 96.382ZM87.0005 98.9644C88.8318 99.2505 90.6823 99.1956 92.3939 99.1784C92.2618 98.6919 91.6745 98.5903 91.2893 98.5457C89.8179 98.3484 88.447 98.7954 87.0005 98.9644ZM88.7036 101.114L88.9373 101.013L89.2153 100.937L89.7078 101.102C90.0621 100.483 88.8871 100.691 88.5778 100.513L88.7036 101.114Z" fill="white"/>
<path d="M65.5762 50.7218C69.9569 53.1136 73.2759 56.1296 76.0076 59.044C77.2568 60.3463 76.4526 62.4676 75.5543 63.8308C73.4606 66.974 71.3862 69.776 68.6181 71.5353C62.8472 69.9315 58.5951 65.2662 56.5656 61.2283C56.0739 60.2426 56.7637 58.9359 57.3458 57.9197C59.4841 54.3914 62.1265 52.032 64.9572 50.778C65.0267 50.7591 65.3553 50.5953 65.5762 50.7218ZM68.1442 59.3517C65.1882 59.595 61.7522 59.8568 59.0862 60.6183C59.939 60.4612 60.8419 60.6264 61.7385 60.9052C60.6266 61.2072 59.471 61.0734 58.4667 61.085C58.0807 61.8614 58.5852 62.6199 58.9953 63.0308C62.7479 62.0115 67.2138 61.2834 71.0861 60.5674C71.2693 60.5549 71.5854 60.2079 71.377 60.2645C68.3073 60.5014 64.8837 60.9463 61.7955 60.7031C66.1161 60.1265 70.6829 59.6322 75.1609 59.4978L73.8426 57.8039C72.3387 58.5855 69.8876 59.1767 67.9426 58.8842L68.1442 59.3517ZM64.5252 65.6701C67.0329 65.2874 69.9194 65.063 72.7734 65.8175L74.4686 63.2676C72.3645 64.175 71.1965 63.858 68.853 64.1587C69.1052 64.5379 69.3643 64.3929 69.6612 64.3869C69.6106 64.4753 69.4398 64.6709 69.3957 64.6456C67.0269 64.9906 64.5132 65.0764 62.2894 65.6805L63.1795 66.0729L62.1183 66.2866C62.3958 66.6216 62.9131 67.1527 63.5823 67.4186C64.2957 67.7099 65.2819 66.8077 66.2226 67.1118C66.3492 66.8909 66.722 66.7523 66.9871 66.9042C68.2636 66.1097 69.4879 67.0457 70.9606 66.0114L64.3733 65.9352C64.3545 65.8657 64.5252 65.6701 64.5252 65.6701ZM63.4291 62.8711C66.7703 62.6724 71.1981 62.2159 74.7157 62.5289C75.2146 62.58 75.7662 60.49 74.9957 60.4008C74.1116 60.3052 73.3026 60.898 72.4121 60.9161L72.7917 60.2533C72.0972 60.0316 72.0269 60.8715 71.4143 60.814C71.3006 60.8076 71.1239 60.7063 71.0166 60.5862L69.9927 61.3494C69.348 61.8603 65.1793 62.1718 63.4291 62.8711ZM57.8807 59.7518L70.8613 58.0914C68.6324 57.5775 63.5856 58.0903 60.699 58.3147C59.322 58.4648 58.0652 58.5078 57.8807 59.7518ZM61.2996 57.7784C65.0831 57.4223 68.816 57.1545 72.7946 57.3797C72.2713 56.5518 70.9968 55.2936 70.346 55.5077C66.865 56.5652 63.1823 57.1551 59.5374 57.884C59.9033 58.2696 60.3709 58.068 60.7432 58.34C60.8762 58.0054 61.0722 57.7656 61.2996 57.7784ZM59.6323 63.8651C60.1308 64.3267 60.6349 65.4956 61.8604 65.2C65.1896 64.4076 68.8908 64.2977 72.1256 63.1579C67.8878 63.0778 63.6685 63.4777 59.6323 63.8651ZM61.2896 55.1321C60.4244 55.106 59.8608 56.6022 59.298 57.2775L68.1862 55.3855C66.898 55.1758 65.5969 55.1934 64.4348 55.1732C63.4178 55.4122 62.3822 55.1711 61.2896 55.1321ZM66.6581 67.4786L67.0686 67.479L66.6581 67.4786L64.6616 68.0955L70.0173 68.1704C69.2203 69.357 68.0647 69.2232 67.2874 69.6582C68.7395 70.1965 70.1679 69.1369 70.9838 68.0198C71.357 67.4707 71.7932 67.0165 72.3307 66.3854C70.6376 66.8827 68.938 67.4935 67.3217 67.0372C67.2775 67.0119 67.0059 66.9737 66.9176 66.9231L66.3046 67.2761L66.6581 67.4786ZM64.7257 54.8704C65.5978 54.3723 66.7088 54.8914 67.429 54.6584C68.1051 54.4002 70.2203 54.9076 69.078 54.1359C68.6614 53.8386 67.1579 54.2097 66.6526 54.2724C66.9121 53.7168 67.6508 53.9639 67.7207 53.5345C65.7685 54.1767 63.9943 53.6886 62.0416 54.7413C62.7803 54.9884 63.652 54.9009 64.3842 55.2616C64.4602 55.1291 64.6309 54.9334 64.7257 54.8704ZM62.3457 53.8006L67.2287 52.9593C66.6101 52.605 65.9224 51.859 65.158 52.0666C64.1598 52.3751 63.1423 53.0246 62.3457 53.8006ZM64.7556 68.8535C65.6208 68.8796 66.0751 69.3159 66.6053 69.6196C66.9219 68.862 68.5387 68.9079 67.9137 68.6672C66.9729 68.3631 65.4887 68.3932 64.7556 68.8535ZM63.5712 66.0039C63.6025 66.2565 64.1078 66.1939 64.3038 65.9541C64.1275 65.4423 63.5021 65.6122 63.5712 66.0039Z" fill="white"/>
<path d="M51.0893 111.256C57.3558 116.195 65.4797 120.555 69.516 126.212C70.8278 128.019 72.5558 130.535 70.4753 133.04L65.8718 138.618C64.5566 140.095 61.8468 140.42 59.3853 138.776C58.3764 137.259 55.6485 136.694 54.1707 136.611C55.0047 136.384 55.1192 135.569 54.507 135.101C48.8209 130.788 43.3871 126.854 40.171 122.02C39.0548 120.383 38.7605 117.925 40.3544 115.552C42.8149 111.974 45.8112 109.406 49.4605 110.616C50.0413 110.832 50.6157 111.161 51.0447 111.641L51.0893 111.256ZM57.4183 129.199C57.5761 129.231 58.0686 129.396 58.22 129.541C58.3972 129.232 58.6876 129.339 58.8896 129.396C58.7189 129.592 58.4285 129.484 58.22 129.541L49.7312 130.019C51.801 131.732 53.9403 133.427 56.7617 135.161C59.2566 135.005 62.7115 134.813 65.504 133.831C65.3775 134.051 65.6426 134.203 65.7434 134.437C66.205 133.939 66.6729 133.327 67.4309 133.233C64.9742 133.116 62.2267 133.303 59.8137 133.623L59.9467 133.288C58.3299 133.242 56.9525 133.803 55.5502 133.997C54.7923 134.091 55.1847 133.201 55.4627 133.126C58.7477 132.308 62.0135 131.831 65.2221 131.557L64.9635 131.291C65.1024 131.253 66.0946 130.648 65.7339 131.38C66.5361 131.312 67.6291 130.94 68.0151 130.164C62.6337 130.543 57.2334 130.854 52.1485 131.638C55.5793 130.258 59.9569 129.48 63.5633 129.433C63.9043 129.452 64.012 129.162 64.0373 129.118L63.7722 128.966C63.8987 128.745 64.3281 128.815 64.0373 129.118L64.3654 129.364C65.111 129.087 65.6738 128.412 66.7543 127.857C60.7921 128.022 55.2464 128.483 49.9405 129.141C49.7573 129.153 49.6561 129.33 49.6497 129.444C52.2707 129.478 54.7342 129.07 57.4183 129.199ZM48.3603 117.967C50.2366 117.457 50.0655 118.063 51.9096 118.122C52.4909 117.927 53.1163 117.757 53.6718 118.017C53.6971 117.972 53.8172 117.865 53.8172 117.865C55.3268 117.791 56.9247 117.767 58.4338 118.103C57.1761 118.967 55.4328 119.143 54.0871 119.545L53.8344 119.577C53.6702 119.659 53.5183 119.924 53.1648 119.721C53.0636 119.898 51.0547 120.332 52.6462 120.422C55.4187 120.601 58.7286 120.15 61.4881 120.557C59.264 121.572 56.7687 122.138 54.387 122.71L61.6756 122.484C62.383 122.478 64.0255 122.069 63.9046 122.997C61.87 123.886 59.678 124.332 57.688 124.835C60.2082 124.636 63.5936 124.462 66.076 124.124C63.1736 121.405 59.0588 118.344 56.0736 116.282C53.8056 116.861 51.7912 116.587 50.2559 117.116L47.4891 117.644C47.7542 117.796 48.2655 118.03 48.3603 117.967ZM49.1074 128.547C53.8642 127.516 58.8673 126.567 63.6554 125.789C64.1607 125.726 64.5841 125.499 64.8436 124.944C58.8308 125.196 52.9505 125.525 47.1895 126.568C46.4757 126.687 47.9672 125.722 48.403 125.678C48.7693 125.654 49.0473 125.578 49.4643 125.465C48.119 125.457 46.6476 125.26 45.2325 125.682L49.2769 129.582L49.6119 129.305C49.3339 129.38 48.2293 128.748 49.1074 128.547ZM40.4202 119.228C40.1675 119.26 40.8423 120.233 40.88 120.372C44.6069 119.807 48.8696 120.254 52.3566 119.493L52.4956 119.455L52.7294 119.354L54.2141 118.914C54.163 119.413 53.6011 119.267 53.3167 119.456L53.8786 119.602L54.1313 119.571C54.9716 119.23 55.5409 118.442 56.6399 118.367C55.6296 118.082 54.619 118.207 53.6971 117.972C53.1665 118.079 52.4969 118.224 51.9349 118.078C48.1832 118.276 44.1346 118.48 40.4202 119.228ZM59.3245 124.13C59.3751 124.041 59.5772 124.098 59.533 124.073C60.5625 124.017 61.9969 123.254 61.9214 122.976C56.1548 123.312 50.3946 123.533 44.8867 124.134C44.2677 124.19 43.6114 123.697 44.2244 123.344C43.7696 123.318 43.4037 122.932 42.955 123.203C43.3712 123.911 44.0777 124.727 44.6019 124.734C49.484 124.713 54.6565 124.801 59.3245 124.13C59.0216 123.839 59.0976 123.706 59.3627 123.858L59.3245 124.13ZM55.7207 121.713L55.9986 121.638C56.3967 121.455 56.9844 121.146 57.4451 121.469L56.3521 121.84C56.3963 121.866 56.6425 121.948 56.712 121.929C57.7227 121.804 59.3845 121.054 59.3973 120.827C54.0666 121.118 48.3445 121.068 43.6006 121.871C42.4952 122.06 44.0248 120.823 43.4311 120.836C42.9511 120.854 41.6942 120.897 41.2584 120.941C41.6998 121.604 42.0778 122.584 42.9366 122.723C47.2559 123.378 51.4379 122.429 55.4744 121.631L55.7207 121.713ZM68.4981 127.272C67.5115 128.584 65.6669 128.936 64.3024 129.269L62.6976 129.817L69.8283 129.559C69.4195 127.917 68.2904 126.507 66.9529 125.154C64.0466 126.13 60.8122 126.86 57.6851 127.709C61.1022 127.378 64.7086 127.331 68.4981 127.272ZM44.285 113.403C43.1341 114.797 41.7623 116.065 40.6869 117.738L51.4883 116.296C48.7288 115.889 45.4253 116.227 42.7481 115.574C45.3828 114.56 48.2693 114.335 51.0675 114.06C49.8994 113.743 48.6489 113.672 47.5186 113.494C47.4049 113.488 47.2599 113.229 47.2157 113.204C46.5963 113.67 44.5823 112.986 44.285 113.403ZM61.76 132.684C64.0588 132.768 66.6806 131.981 69.3201 132.496C69.9074 132.597 69.9403 131.208 70.0171 130.254C67.3949 131.451 64.571 132.181 61.76 132.684ZM44.9586 115.608C48.1926 115.289 51.868 115.634 55.2594 115.757C54.3628 115.478 53.8781 113.968 52.9996 114.58L53.1514 114.315L44.9586 115.608ZM68.3335 133.808L65.7181 134.481L59.4766 135.953C62.458 135.665 65.9626 136.206 68.3335 133.808ZM59.7718 137.589C60.1442 137.861 61.2423 138.607 61.6464 138.721C62.7386 139.171 63.7814 138.477 64.8049 138.125C65.1777 137.986 66.1643 136.673 65.4123 137.064C63.8071 138.022 61.5396 138.191 59.7718 137.589ZM45.1893 112.336C46.939 112.048 48.6631 112.214 50.7221 112.102C50.0971 111.861 49.0555 111.323 48.6703 111.279C47.4516 111.05 45.8597 111.371 45.1893 112.336ZM52.079 113.114C49.7492 112.366 47.4246 112.736 45.454 112.899C46.0725 113.253 46.6474 113.171 47.1904 113.248C48.7317 113.016 50.4995 113.618 52.079 113.114ZM59.8108 136.496C60.7005 137.299 63.9787 137.006 64.0237 136.21C62.5772 136.379 61.0617 136.157 59.8108 136.496ZM53.8567 116.362L51.4883 116.296C52.1636 116.859 53.0039 116.519 53.8567 116.362ZM49.6902 120.665C49.936 121.158 52.3807 120.68 51.0672 120.515C50.4988 120.483 50.0377 120.571 49.6902 120.665Z" fill="white"/>
<path d="M54.4642 65.7166C59.8808 67.9389 63.199 71.776 65.3799 75.9592C64.1261 79.1727 61.1981 82.9528 58.1894 85.3371C55.7053 87.3177 51.2932 84.6732 48.8073 82.2517C45.949 79.5583 42.7184 76.5929 44.0485 72.8364C45.7905 67.8488 49.5889 65.2127 53.1382 65.3679C53.7255 65.4695 54.1296 65.5836 54.4642 65.7166ZM63.2883 77.0497C64.021 76.9999 64.1291 76.299 64.0664 75.7937C63.8528 74.7324 62.6915 73.8912 62.1622 72.7665C61.5179 72.8669 58.5168 73.9059 58.5241 72.9712L48.4309 73.5862C47.1045 73.648 47.0732 73.3953 46.2573 74.5124C45.5259 73.3306 45.0635 74.6501 45.2716 75.004C48.8788 74.1361 52.8832 73.9065 56.749 73.3041C56.5972 73.5692 55.1571 73.6246 55.6998 74.1115C55.877 73.8022 56.1674 73.9098 56.3694 73.9669L56.6474 73.8914L56.9254 73.8159L56.6474 73.8914L56.3694 73.9669C56.1987 74.1625 55.9083 74.0548 55.6998 74.1115C53.0784 74.4877 49.3833 74.8945 46.9763 75.511L61.2695 74.8371C61.7937 74.844 63.3286 74.7256 63.1128 75.7169C62.1275 75.798 61.2117 75.8602 60.3083 76.1056C58.9626 76.5085 60.4605 75.43 59.911 75.4673C59.1088 75.536 58.2749 75.7625 57.3462 76.0521C57.4346 76.1027 57.6619 76.1156 57.7756 76.122C58.5396 76.3249 57.3141 76.6205 57.2132 76.3867L49.1088 77.73C49.3482 78.3365 49.9929 77.8256 50.3905 78.0534L50.4665 77.9208L63.2883 77.0497ZM52.2927 83.1332C53.3536 83.3301 54.6229 83.4703 55.7914 83.3768C56.4104 83.3206 57.9135 83.36 57.7544 84.5598C59.7134 83.3934 61.3709 80.7046 62.7753 78.4576C62.1439 78.3306 61.7012 78.8986 61.1204 78.6833C61.3606 78.4688 61.3485 77.8751 60.9822 77.9C56.8766 78.3063 51.4767 78.2061 47.4212 78.9346C47.4268 79.6419 48.0767 80.2489 48.3294 80.2176L57.994 78.7117L58.5435 78.6743L58.8215 78.5988L59.0995 78.5233L59.3774 78.4478L59.6554 78.3723C59.984 78.2084 60.458 77.8931 60.8239 78.2788L59.6554 78.3723L59.3774 78.4478L59.0995 78.5233L58.8215 78.5988L58.5435 78.6743L58.2085 78.9519C58.7263 79.0724 59.3204 78.6499 59.8695 79.0231C58.7323 79.3693 55.9783 79.6696 55.1062 80.1677C55.8136 80.1621 57.4115 80.1384 57.9546 80.2148C58.7503 80.2598 60.6322 80.4575 60.0947 81.0885C59.3801 82.0289 58.079 82.0465 57.0242 82.1464L55.5966 82.385L55.3186 82.4605C54.3457 82.7248 53.2969 83.1216 52.2927 83.1332ZM50.2865 68.6049C52.5472 68.9609 55.1879 68.2436 57.0127 68.6434C54.789 69.2474 51.2393 69.5027 49.2111 70.2775L57.9582 70.4759C58.1856 70.4888 59.3155 71.0773 58.4374 71.2785L51.5139 72.7114C54.6278 72.4999 58.0514 72.0549 61.3608 72.0141C59.7775 70.1683 57.3224 68.41 54.6204 67.3904C53.7049 67.0421 51.7398 67.9117 50.2865 68.6049ZM45.7126 76.0781C45.3021 76.0777 44.9181 74.8015 45.0061 75.2627C45.1944 76.3681 45.8431 78.2066 47.492 77.6841C50.4866 76.7588 53.588 76.364 56.8602 75.7737C56.7907 75.7926 57.0181 75.8054 57.1004 75.5592L45.7126 76.0781ZM47.7012 70.7623C47.4605 71.3873 46.5884 71.8853 46.3096 72.7819L56.4418 71.0743L47.7012 70.7623ZM58.8319 80.8346C55.5288 80.7618 52.39 80.607 49.3328 81.027C49.9068 81.7666 50.5185 82.6451 50.8406 82.5949L56.4502 81.4069C56.7977 81.3125 56.8603 81.8179 57.0053 82.077C57.0504 81.2812 58.0734 81.3391 58.8319 80.8346ZM53.0563 83.7466C53.9584 84.7328 55.821 85.2715 57.1542 84.6855C57.1169 84.136 56.7004 83.8387 56.1762 83.8319C55.1278 83.8182 54.0858 83.6908 53.0563 83.7466ZM46.2547 70.9313C46.8557 69.9846 49.3844 67.6188 48.2721 68.3313C47.2799 68.9366 46.5713 70.1738 46.2547 70.9313ZM50.8244 67.5634C51.6583 67.3369 53.345 66.9533 52.9851 66.8645C52.2906 66.6428 51.4438 67.0966 50.8244 67.5634ZM55.5777 82.3155C55.1488 81.8351 54.3148 82.0616 53.967 82.5665C54.4534 82.4343 54.9021 82.1632 55.2998 82.391L55.5777 82.3155ZM49.8438 69.1729C49.5852 68.9074 48.9413 68.5972 49.13 69.2922C49.1867 69.5006 49.6542 69.299 49.8438 69.1729Z" fill="white"/>
<path d="M76.7145 109.034C81.1522 111.224 83.416 114.75 84.4735 118.231C84.6245 118.787 83.5431 120.163 83.764 120.289C81.6527 122.131 79.8434 125.085 77.1199 126.459C71.8281 125.658 67.2603 120.929 66.4246 116.754C67.7367 112.107 71.3404 108.479 74.9592 108.615C75.5087 108.578 76.2474 108.825 76.7145 109.034ZM70.659 120.118C68.9852 120.274 70.6132 121.735 70.91 121.729C73.9793 121.902 76.469 120.629 80.1504 121.271C78.5143 121.566 77.0554 121.552 76.0379 122.201C76.9915 122.278 77.876 121.963 78.8103 122.381C79.1008 122.489 79.7635 122.868 79.3461 123.392L80.7621 122.149C80.6489 121.732 82.2223 120.932 80.7063 121.12C81.0289 120.659 81.7805 120.679 82.2991 119.978L71.9283 120.258C71.429 120.618 70.9812 120.068 70.659 120.118ZM76.0099 118.665L77.2166 118.299C77.1531 118.615 76.831 118.665 76.5972 118.766L76.9254 119.013C77.7657 118.673 78.8776 118.371 79.2825 117.664C75.6007 117.433 71.975 117.82 68.6591 117.975C68.2233 118.019 68.5249 119.541 68.986 119.453L75.4669 118.588C75.4669 118.588 75.7131 118.671 75.8268 118.677L76.0099 118.665ZM79.0919 112.567C76.0913 113.195 72.8256 113.672 69.8627 114.439C73.6145 114.241 77.5996 114.353 81.6225 114.603C81.1244 113.731 80.5504 112.991 79.8624 112.656C79.6856 112.555 79.2309 112.529 79.0919 112.567ZM79.7462 115.113C76.0896 114.837 72.4704 115.112 68.5295 115.025C68.1885 115.006 67.6377 116.275 68.1044 116.894L76.891 115.59L76.3728 115.88C77.522 116.127 78.6973 115.509 79.7462 115.113ZM73.0496 116.969C76.2896 116.947 79.5733 117.361 82.7443 116.947C82.8524 116.246 82.525 115.179 81.9944 115.285L73.0496 116.969ZM76.0344 119.441C78.1758 119.084 81.0924 120.343 83.0832 119.019C84.0312 118.389 82.9725 116.139 82.9776 117.257C81.1009 118.177 78.9089 118.623 76.9695 119.038C76.5968 119.177 75.3648 119.586 76.0344 119.441ZM71.9258 122.721C72.5822 123.215 73.453 123.948 74.1981 124.082C75.1011 124.247 76.1877 123.989 77.2682 123.434C77.2429 123.478 79.6434 122.976 77.7173 122.753C75.8354 122.555 73.8459 122.648 71.9258 122.721ZM76.3529 110.587C75.0832 110.857 73.0109 111.607 72.6758 111.884C74.7156 112.114 76.8377 112.097 78.714 111.587C78.2721 111.334 77.3696 110.759 77.035 110.626C76.9024 110.55 76.4919 110.549 76.3529 110.587ZM74.6581 112.726L74.9614 112.607C73.5406 112.321 71.766 112.243 70.2813 112.684C68.8662 113.106 70.5014 113.632 70.7798 113.146C72.1693 113.179 73.3004 112.536 74.4496 112.783L74.6581 112.726ZM75.3027 124.714C76.6094 125.404 78.3149 125.09 78.9794 123.828C79.03 123.739 79.2955 123.481 79.302 123.367C78.139 124.168 76.1177 124.418 75.3027 124.714ZM71.66 110.892C72.7779 110.887 74.0665 110.686 75.1029 110.106C74.7683 109.973 74.3895 109.815 73.9854 109.7C72.8679 109.295 72.6895 110.836 71.66 110.892ZM74.1211 112.947C74.4934 113.219 75.0682 113.137 75.3779 112.904C76.048 112.349 75.3277 112.582 75.0056 112.632L74.7023 112.752L74.4496 112.783L74.1211 112.947ZM76.3634 118.867L76.6414 118.792C76.9005 118.647 77.1973 118.641 77.2608 118.325L76.0541 118.69L76.3634 118.867Z" fill="white"/>
<path d="M59.1887 96.2959C64.1884 98.6315 67.28 101.635 69.1517 105.641C67.5127 108.81 65.0209 112.135 62.309 114.514C56.4557 113.156 51.4774 108.427 50.8188 103.942C50.2856 100.468 52.9875 95.4432 56.6191 95.3522C57.4655 95.3089 58.2986 95.9034 59.1887 96.2959ZM62.0124 108.065L61.9112 108.242L62.6246 108.533C61.9927 108.817 61.3171 108.664 60.5527 108.872C61.6513 109.208 63.3127 108.868 64.4615 109.526C65.6544 110.21 65.953 108.562 66.2502 108.145L64.6206 108.327C64.76 107.878 66.611 107.413 65.771 107.343C61.5461 107.035 57.5614 106.513 52.9196 106.319C55.6238 105.286 59.7165 105.107 62.5709 105.451C61.1999 105.898 59.8294 105.934 58.4524 106.085C60.5741 106.478 63.3971 106.57 65.6453 106.742C66.4411 106.787 67.7923 107.092 67.8442 105.772C67.8892 104.976 66.7203 105.48 66.2909 105.41C60.9738 104.653 56.8308 104.51 51.7656 104.543C51.9853 105.901 53.9787 108.158 54.7423 108.771C56.7263 107.971 59.7196 108.277 61.6019 108.065L62.0124 108.065ZM58.8277 103.483L59.2635 103.439L58.8277 103.483C57.9496 103.684 56.8128 103.62 56.1303 103.992C59.8375 104.179 63.7402 104.536 67.4603 104.496C66.8168 103.775 66.4449 103.093 65.9785 102.063C64.5188 102.87 61.8841 103.884 59.6491 103.073C60.6349 102.582 61.3667 103.353 62.0054 102.545C58.8354 102.138 55.6966 101.983 52.7028 102.087C51.8565 102.13 51.8303 102.996 51.8994 103.387C54.1545 103.036 56.5734 103.013 58.9293 102.896C58.5312 103.078 58.5879 103.287 58.8277 103.483ZM65.3913 101.961C64.5393 101.297 63.9722 100.033 63.1447 100.146L53.8971 101.539C57.352 101.347 61.9617 102.109 65.3913 101.961ZM59.0917 110.91C59.2624 110.715 59.5781 110.778 59.7802 110.835C61.4351 110.61 63.2351 110.643 65.0041 110.013C61.5942 109.41 58.5314 109.122 55.4175 109.334C55.8907 109.84 56.686 110.295 57.0768 111.047C57.6263 111.01 58.2835 110.682 58.8832 110.967L59.0917 110.91ZM58.7815 111.554C59.4053 113.027 61.8929 113.806 63.1322 112.462C63.4989 112.026 63.7142 111.446 64.0051 111.143C62.7615 110.548 61.3588 111.153 60.2027 111.429C59.7098 111.675 59.0218 111.34 58.7815 111.554ZM55.1436 99.2602C54.4298 99.3794 53.4693 99.8269 53.3295 100.686L61.9642 99.6461C59.6465 99.4921 57.5123 98.9152 55.1436 99.2602ZM54.4937 98.6532L60.2037 98.1095C60.0462 97.6673 59.1115 97.66 58.6002 97.4258C57.1798 96.7296 55.31 97.1256 54.4937 98.6532ZM59.4324 98.8414C60.19 99.1579 60.9102 98.925 61.6176 98.9194C61.485 98.8435 60.658 98.5458 60.4495 98.6024C60.1462 98.7221 58.8074 98.6007 59.4324 98.8414ZM60.228 111.385C60.222 111.088 61.5926 111.052 60.5317 110.855C60.3297 110.798 60.0453 110.987 59.8055 110.791L59.4704 111.069L60.228 111.385ZM52.937 101.576L54.1051 101.893L53.8782 101.469C53.5942 101.248 53.1961 101.431 52.937 101.576ZM53.2557 98.7656C53.3947 98.7279 54.1479 97.1055 53.1236 98.2792C53.0476 98.4117 52.6997 98.9166 53.2557 98.7656Z" fill="white"/>
<path d="M98.814 15.5391C112.357 26.1129 127.05 36.1131 138.982 46.9378C147.834 54.9426 153.718 63.8285 154.901 73.9538C155.152 75.9751 154.423 78.7849 153.84 80.6222C149.323 94.348 138.588 105.099 130.632 115.506C119.862 129.699 108.392 142.552 96.6266 153.77C91.1518 159.025 86.0047 164.938 79.6363 167.041C75.0811 168.539 69.5556 167.839 64.0647 164.107C61.6916 162.513 59.3121 161.032 57.4001 159.35C57.0265 160.31 56.2385 158.92 55.9545 158.698C44.5004 149.908 33.8999 140.139 24.1707 130.694C18.3975 125.098 12.7826 119.124 11.7666 112.087C11.0892 107.533 12.813 101.655 16.4429 97.1618C22.4426 85.048 30.7747 77.2629 38.0986 67.1399C48.3699 52.8958 58.9767 37.9635 70.1746 25.4824C75.214 19.8603 80.8968 14.9587 86.7792 12.5774C90.8145 13.011 94.6727 13.7538 99.0212 16.7141C98.8831 15.9308 98.6815 15.4632 98.814 15.5391ZM98.9694 18.034C95.6242 15.8832 92.3666 14.6041 88.8679 14.3605C84.2424 16.699 79.263 19.2454 74.976 24.0663C64.1955 36.0236 54.2025 49.7817 43.9248 64.1395C35.6078 75.6889 26.2561 86.1761 18.4801 99.8544C16.2745 107.393 19.35 113.908 25.2308 119.213C25.6851 119.649 26.5049 120.881 27.0552 120.023C27.516 120.346 27.395 121.274 27.6095 121.514L37.3516 130.732C46.6021 138.965 56.7924 148.323 69.9409 155.384C76.6698 159.004 82.8812 156.048 87.7687 150.691C102.147 134.809 116.229 118.522 130.538 102.249C136.437 95.5348 143.086 90.8932 148.174 81.6017C152.841 75.7075 153.175 69.3858 150.888 64.6719C147.087 56.8618 140.008 49.7557 130.686 43.5946C121.114 35.0017 111.851 26.1755 99.4618 18.1987C99.5566 18.1356 99.0135 18.0593 98.9694 18.034ZM52.4343 49.5905L19.9401 92.5928C17.5114 96.0134 16.8826 99.4675 16.8479 102.499C18.2063 95.8246 24.4408 88.8332 28.6149 83.1848C42.7246 64.391 56.5197 44.302 71.2788 26.5257C73.0178 24.4117 75.0347 22.2222 77.0701 20.5127C77.1903 20.4054 77.3738 19.9825 77.2983 19.7045C68.4227 27.8238 60.536 38.622 52.4343 49.5905ZM112.152 127.689C109.218 130.762 106.5 133.664 103.995 136.807L102.625 142.477C102.33 140.841 102.749 139.085 102.763 138.037C101.339 141.035 101.095 144.124 100.707 146.953C102.071 147.03 100.296 147.773 101.085 147.932C101.243 147.964 102.273 147.087 102.432 146.298C102.749 145.13 101.886 143.051 103.251 141.896L103.115 145.105C103.748 144.411 104.164 145.118 104.158 144.411C104.06 141.714 104.474 138.43 105.392 135.905C105.27 138.475 104.938 141.102 105.075 143.528C105.416 143.547 105.701 142.947 105.834 142.613C107.069 139.33 107.046 136.911 108.186 133.691C108.319 133.356 108.219 131.891 109.173 132.378C109.063 134.721 108.511 136.811 108.938 139.344C109.374 138.89 109.786 138.069 109.811 137.615C109.946 135.227 111.416 130.612 112.152 127.689ZM46.7532 145.565C46.3213 147.958 47.6396 149.652 49.1221 151.264L49.056 147.999C49.0118 147.974 48.9046 147.853 48.9299 147.809C48.5716 146.078 49.1095 145.037 49.0044 142.864C47.8969 145.105 48.2804 146.792 47.6469 148.717C47.6554 146.551 47.4747 144.1 48.4055 141.758C46.9792 140.765 45.8754 139.312 44.2788 138.104C43.3384 137.389 44.063 139.095 43.7404 139.556C43.0652 138.993 43.1167 138.083 42.7387 137.104C41.2893 140.147 41.9183 142.737 41.5683 145.294C42.2375 145.56 42.8745 146.395 43.4489 146.724C43.6093 144.292 43.315 141.835 43.3303 139.145C44.4024 140.756 44.1287 142.771 44.2914 144.331C44.4758 143.087 44.6478 141.66 45.2873 140.031C46.6695 140.999 46.7232 144.081 46.0459 145.571C46.3419 146.386 46.7914 145.293 46.7532 145.565ZM101.336 137.454C113.349 124.677 125.489 111.269 136.916 97.1585C124.953 110.258 113.103 124.184 101.336 137.454ZM67.5792 161.249C67.9965 160.726 67.4856 160.081 67.903 159.557C68.2428 160.808 67.9382 162.159 68.2716 163.524C68.5448 161.92 68.8051 160.543 69.1097 159.192C69.2555 158.63 69.6866 157.058 70.0838 157.696C70.8783 158.973 70.8196 160.817 69.8454 162.313L69.8008 162.698C69.9965 162.869 69.8888 163.159 69.8317 163.361C70.0273 163.532 69.9639 163.847 69.8626 164.024L70.0265 164.353L70.5211 162.465C70.4443 163.419 70.3989 164.625 70.8836 166.135C71.4738 163.363 71.3567 160.596 72.6602 158.116L67.7112 155.692C67.5645 157.075 68.6743 158.825 67.2141 160.043C67.5058 158.919 66.9828 157.68 67.0021 157.339C66.2167 159.53 65.7419 160.666 66.0113 162.757C66.1366 163.768 66.7929 164.261 67.418 164.502C67.596 163.371 66.8898 162.145 67.3016 160.914L67.5792 161.249ZM58.9174 157.931C59.5071 155.57 59.3458 152.778 60.2448 150.593C58.888 149.582 56.8937 148.146 55.4987 147.405C55.6609 149.376 55.3181 150.999 55.2847 152.799L55.709 151.751C55.9977 153.501 56.1535 155.585 56.4868 156.95C56.7888 158.061 57.1882 156.647 57.3211 156.313C57.7184 156.951 57.3512 157.797 57.8308 158.189C57.8883 157.576 58.0731 155.922 57.1444 156.211C56.8239 154.619 57.2189 151.266 57.9031 149.252C58.8936 150.289 58.5119 153.004 58.0198 152.429C59.0682 152.443 57.2465 155.214 58.2756 155.568C58.9259 155.765 58.5711 156.794 58.9174 157.931ZM25.0882 128.989C25.0561 129.558 24.1977 129.007 24.1539 128.572C23.7395 126.222 23.6798 122.843 22.9303 120.77L21.7246 126.359C23.2762 128.362 25.2894 129.867 27.119 131.796C27.2704 131.941 27.1259 131.271 27.1323 131.158C27.2489 128.29 26.7851 124.797 26.3329 122.309C25.699 124.645 25.2104 126.829 25.0882 128.989ZM148.22 85.208C147.713 87.3232 147.085 90.3668 147.026 92.2109C147.665 91.4032 149.082 88.9288 149.537 88.1335C152.201 83.3805 154.335 77.9132 153.556 73.9461C152.126 76.6478 152.692 79.1431 151.931 81.7002C151.703 82.5084 150.718 82.179 150.732 81.5411C149.769 84.0412 149.134 87.1984 148.69 89.4084C148.399 89.3008 148.604 87.3052 148.642 86.6231C148.301 87.0144 148.552 87.8041 147.99 88.0688C147.758 86.938 148.927 86.0234 148.22 85.208ZM18.5868 112.884C18.3437 115.972 18.2017 118.883 18.6282 121.827L19.3449 118.834C19.3261 118.765 19.2441 118.6 19.2694 118.556C19.8575 117.837 19.157 117.318 20.3894 116.498C20.7022 119.435 20.598 122.486 21.2712 125.101C21.7974 123.055 21.863 120.687 22.8316 118.484L19.0595 113.8C18.7756 113.579 18.6001 112.246 18.5868 112.884ZM15.5925 107.355C15.873 104.816 14.6941 102.674 15.8402 99.7506C15.4606 100.413 14.4796 102.433 14.4599 103.185C14.3364 106.576 13.6686 111.123 13.501 114.489C13.9248 113.852 13.9132 112.847 13.9638 112.759C13.9385 112.803 14.9668 113.979 14.2397 114.736C13.2977 115.664 14.4268 117.073 15.1903 117.687L15.6225 108.839C15.5976 108.472 15.5161 107.898 15.5925 107.355ZM61.6361 155.029C61.6155 156.601 61.8918 158.168 62.1304 159.595C62.404 157.581 62.5451 155.491 63.5578 153.313C64.9022 154.141 64.7174 155.796 64.6531 156.933C64.7282 157.621 64.557 158.227 64.2722 158.827L64.3477 159.105L64.5558 159.459L64.8213 159.2L65.2718 163.331C65.373 163.154 65.7651 162.675 65.7273 162.536C65.439 160.376 66.1742 157.863 66.9158 155.236L61.6206 151.675C61.5807 153.588 61.1758 154.295 61.1861 156.531L61.6361 155.029ZM34.7032 132.795L35.3682 137.166C35.5084 135.897 35.952 134.508 36.0609 132.986C36.0991 132.714 36.9844 131.578 37.0908 132.519C37.3534 135.134 37.7104 138.097 38.4968 141.129C38.9857 138.534 39.0637 136.349 39.2808 134.126C38.0063 132.868 36.2586 131.104 34.6178 129.871C34.9326 130.755 34.6538 131.652 34.653 132.473L34.7032 132.795ZM17.1387 114.695C17.1249 115.743 16.0861 118.787 16.1925 119.728C16.2864 120.486 17.1195 121.08 17.7128 121.479C17.424 119.729 17.5269 117.91 17.5857 116.066C17.6006 113.786 17.8305 111.336 16.791 108.745C15.9546 111.435 15.9067 115.104 16.0367 117.643C16.2336 116.582 16.9418 115.756 17.1387 114.695ZM119.715 118.993C118.905 119.997 117.647 120.861 117.16 122.224C116.761 123.228 116.835 125.148 116.517 126.727L117.112 125.483C117.186 126.993 116.945 128.439 117.303 130.17C118.558 126.135 119.181 122.384 120.113 118.811C120.062 118.899 119.809 118.93 119.715 118.993ZM131.19 106.437C129.552 109.195 129.271 112.555 128.181 115.276C128.87 114.79 128.288 116.217 128.445 116.659L131.481 112.589C130.807 111.205 131.263 109.999 131.314 108.679L131.769 108.705C131.182 108.193 131.24 107.169 131.19 106.437ZM31.2647 135.52C31.4744 134.232 30.8129 132.62 30.8334 131.048C30.8146 130.978 30.8969 130.732 30.9475 130.644L30.872 130.366C30.6764 130.195 30.7841 129.905 30.7716 129.721C30.401 127.807 31.1208 127.985 30.1817 126.039L29.5538 128.672C28.5535 131.033 27.9753 134.399 31.2647 135.52ZM124.945 118.058C124.641 118.588 125.5 118.728 125.311 118.033C125.747 118.4 125.253 119.466 125.416 120.205C126.244 119.682 126.548 118.741 127.345 117.965C126.904 116.481 127.121 114.258 127.363 112.401C128.013 113.008 127.163 111.113 127.403 110.488C126.39 112.665 126.016 114.857 125.83 117.332C125.811 117.673 125.324 117.805 125.186 117.022C124.738 116.883 124.966 115.664 125.313 116.391C125.743 116.05 125.505 113.801 125.734 112.583C125.379 113.612 124.387 113.807 124.752 115.424C125.01 116.51 124.657 115.487 124.025 115.77C124.909 116.277 123.87 118.909 124.945 118.058ZM96.4142 151.477C96.358 150.858 97.4952 150.512 97.0015 151.578C98.2021 150.916 98.9361 149.635 99.9729 148.645C100.598 148.885 100.428 147.849 99.7013 148.606C98.8129 146.572 99.2195 144.223 98.8488 142.309C97.8738 144.626 97.6692 147.032 97.3004 149.52C97.2687 149.678 96.8316 150.953 96.5296 149.841C96.3837 150.403 95.9852 150.996 96.4142 151.477ZM116.331 123.158C115.343 126.524 114.245 131 113.882 134.196C114.768 133.06 116.468 132.038 116.285 131.23C115.72 128.324 116.33 124.8 116.635 123.039C116.451 123.051 116.331 123.158 116.331 123.158ZM32.4259 136.361C32.3303 137.245 33.8201 137.922 34.5897 138.833L33.6839 129.042C33.0182 131.536 32.6935 134.05 32.4259 136.361ZM136.357 105.817C138.853 104.43 139.342 101.835 138.852 99.6173C140.716 99.335 138.74 98.3793 139.157 97.445C139.316 97.0662 138.994 96.2953 138.754 96.9203C137.551 100.045 136.954 102.931 136.357 105.817ZM40.3747 138.977L40.5596 137.323C40.8616 138.435 40.866 140.374 41.3258 141.517C41.3082 140.216 41.2215 138.524 42.0438 137.293C42.689 136.371 41.4638 136.257 41.2305 135.947C40.4609 135.037 40.6303 136.072 40.4467 136.495C39.896 137.764 40.0302 136.198 39.6763 136.406C39.7441 138.029 38.9086 139.898 39.229 141.49C37.8259 142.505 39.8961 143.809 40.5906 144.03C40.144 142.249 39.9694 140.095 40.0285 137.84L40.3747 138.977ZM86.3491 161.673C87.4193 158.882 88.0224 155.883 88.8777 153.263C88.5487 153.837 88.049 154.607 87.291 154.701C85.3834 154.958 85.1153 157.68 85.7648 158.697C86.3701 159.69 85.8511 160.801 86.3491 161.673ZM79.7722 163.832C80.0506 163.346 79.9438 162.816 80.1591 162.235C80.4555 162.639 80.2025 163.081 80.341 163.454C80.5427 163.921 80.1309 165.153 81.1355 164.73C80.7049 165.892 81.9501 164.845 81.9566 164.731C82.1543 162.849 81.6322 160.79 81.7162 158.902C81.7548 158.22 80.8458 157.758 80.7502 158.642C80.6288 159.981 80.1342 161.868 79.4818 163.725L79.7722 163.832ZM76.5175 159.679C75.4482 161.649 74.5298 164.174 74.3763 166.081C74.357 166.422 75.3359 166.455 75.7906 166.481C77.1612 166.444 76.5245 165.199 76.6579 164.454C76.6961 164.183 76.6901 163.886 76.9303 163.671C76.5592 162.168 77.0401 161.328 76.5175 159.679ZM53.3968 152.304C53.5945 150.422 53.7923 148.541 54.5836 146.647L52.3813 144.857C52.8468 146.708 52.2321 148.703 52.1228 150.636L52.5916 149.203C52.7919 150.902 52.7774 152.771 53.1292 154.616C53.5088 153.953 53.0674 153.289 53.4659 152.696L53.4093 152.488C53.4157 152.374 53.4221 152.26 53.3968 152.304ZM131.507 111.723C131.849 110.922 131.623 110.088 131.99 109.242L132.058 110.865C132.348 110.562 132.608 110.007 132.703 109.533C133.091 107.114 134.048 103.907 135.193 101.395C134.194 102.524 132.804 103.723 131.899 105.2C131.418 106.039 132.465 107.695 131.725 108.679L131.507 111.723ZM59.2648 157.837C59.0735 159.605 60.7907 160.295 61.5354 160.839C60.6659 158.874 60.9103 154.554 60.7485 152.173C59.976 154.136 59.5067 155.98 59.2648 157.837ZM136.084 100.966C134.736 104.242 133.526 107.481 132.746 110.79C133.821 109.528 135.3 108.38 135.744 106.991C136.016 106.208 135.512 105.039 135.816 104.098C135.495 102.506 136.98 102.476 136.084 100.966ZM28.752 128.33C28.93 127.2 29.247 126.031 29.5828 124.933L27.3809 122.733L28.0979 131.828C29.0781 130.629 28.3093 128.898 29.5349 128.602C29.2003 128.469 28.6757 128.873 28.752 128.33ZM63.708 154.69C63.5493 155.479 63.0813 156.091 62.9672 156.495C62.8467 157.013 62.8618 160.777 62.5199 161.579C63.0184 162.04 63.839 162.452 64.3504 162.686C64.1556 161.694 64.283 160.652 64.1135 159.616C64.1199 159.503 64.2529 159.168 64.3035 159.08L64.228 158.802C64.1465 158.227 63.7055 157.153 64.6089 156.907C64.0851 156.49 64.0482 155.53 63.708 154.69ZM92.5583 154.725C93.0082 153.223 93.1636 155.718 93.3098 154.745C93.6409 152.118 94.3641 149.011 95.1499 146.41C93.3358 147.836 92.1652 149.982 93.0031 152.105C93.2613 152.781 92.6359 152.951 92.5166 152.237L92.5583 154.725ZM120.697 122.196L120.696 122.607L120.696 123.018L120.834 123.39C121.195 123.069 121.075 122.355 121.341 121.686C121.473 122.582 121.352 123.511 121.787 124.288L122.907 115.776C122.496 116.186 121.523 116.86 121.39 117.195C120.985 118.313 121.198 119.374 121.406 120.549C121.789 122.235 120.673 120.599 120.558 121.824L120.697 122.196ZM73.6611 161.388L72.9645 163.219L72.9641 163.63L72.9637 164.04L72.919 164.425L73.1018 164.823C73.4621 164.502 73.3428 163.788 73.6088 163.119C73.8795 163.978 73.3986 164.817 74.0104 165.696C74.6194 162.993 74.7219 161.585 75.7287 159.11L73.9167 158.483C74.0231 159.424 74.0785 160.864 73.2064 161.362L73.6611 161.388ZM134.923 44.9063C131.844 42.0863 128.455 39.4997 124.548 36.7926C124.327 36.6661 125.028 37.1847 125.179 37.3301C128.05 40.2067 131.602 43.1219 135.434 45.551C135.352 45.3867 135.055 44.9822 134.923 44.9063ZM140.341 101.116C142.863 99.274 143.03 96.3184 142.268 94.0629C141.509 95.799 140.95 98.4131 140.197 100.035C140.146 100.124 139.197 101.986 140.341 101.116ZM110.506 137.836C110.993 137.294 112.275 136.796 112.359 135.729C112.487 133.866 112.193 130.998 112.859 128.504C112.631 128.491 112.441 129.028 112.378 129.344L110.506 137.836ZM145.09 88.9311C145.032 90.3647 145.586 91.8558 145.856 93.9466C146.718 90.8022 146.916 88.0993 147.462 85.3019C146.596 86.5074 145.161 87.6806 145.09 88.9311ZM118.612 128.396C119.441 127.462 120.515 126.611 120.965 125.519C121.155 124.982 120.474 124.123 120.506 123.554C120.519 123.327 120.62 123.15 120.67 123.062L120.671 122.651L120.671 122.241L120.533 121.868C120.382 121.312 120.989 120.662 120.579 119.841C119.717 122.574 119.24 125.763 118.612 128.396ZM35.7715 138.101C35.2078 139.597 36.3056 140.754 37.6251 141.217C36.9198 139.17 37.1626 136.492 36.6598 134.092C36.248 135.323 36.2845 136.693 35.7715 138.101ZM76.9788 165.636C77.2448 164.967 77.1697 164.278 77.5935 163.641C77.6308 164.19 77.8505 165.548 78.0281 164.828C78.3202 163.294 78.4612 161.204 79.2526 159.31L77.4969 159.302C77.3884 160.413 77.841 162.491 76.8608 163.69C77.0813 164.227 76.8849 164.878 76.9788 165.636ZM24.7874 126.646C24.7261 124.909 25.8023 122.415 25.2103 120.785C24.9773 120.065 23.986 119.849 23.5381 119.299L24.7874 126.646ZM44.7375 146.523L44.7247 146.75C43.8582 147.956 45.8469 148.684 46.3518 149.032C46.3024 147.889 45.9562 146.752 46.0647 145.64C45.7438 144.459 45.7957 143.139 45.6709 141.718C44.9618 143.365 44.9979 145.146 44.6492 146.472C44.7568 146.182 44.8452 146.233 44.7375 146.523ZM50.7762 151.86C50.7879 152.864 51.4317 153.174 52.0568 153.415C52.2292 151.577 51.7195 149.701 51.7847 147.743C52.978 148.016 51.2814 145.753 51.5654 145.974C50.4193 148.897 50.7723 149.51 50.7762 151.86ZM122.817 123.411C123.5 122.629 124.385 121.903 124.815 121.152C123.724 119.882 124.143 117.716 124.094 116.162C124.075 116.093 124.158 115.846 124.025 115.77C123.12 118.068 123.085 121.1 122.817 123.411ZM113.467 133.077C113.551 130.368 114.616 127.281 115.187 124.439C114.536 124.653 114.055 125.493 113.398 126.231C113.876 127.444 112.73 131.188 113.007 131.934C113.467 132.256 113.144 133.128 113.467 133.077ZM31.8978 134.005C32.3481 132.091 32.2996 130.127 32.952 128.271C33.1168 127.779 31.6145 126.918 31.1851 126.848L31.8978 134.005ZM50.1027 149.655C50.104 148.423 50.2322 146.56 50.9155 145.367C51.7824 143.751 50.1849 143.364 49.5981 142.852C49.5389 145.107 49.587 147.482 50.0268 149.787C50.0521 149.743 50.1533 149.566 50.1027 149.655ZM73.0446 158.981C72.2463 161.399 71.7261 163.742 71.7617 165.934C71.7489 166.161 73.2069 166.996 72.9555 165.796C72.8865 165.404 72.7543 164.918 72.9379 164.495L72.9825 164.11L72.9829 163.699L72.9834 163.288C72.8577 162.688 73.0541 162.038 73.1999 161.476C73.1755 160.699 73.29 159.885 73.0446 158.981ZM86.7776 14.2195C86.7081 14.2383 86.9294 13.9544 86.8981 13.7017C83.7765 15.2585 80.7051 17.1375 77.8607 19.4398C77.7659 19.5029 77.5888 19.8122 77.3867 19.7551L86.7776 14.2195ZM82.3489 157.797C82.6629 159.503 82.5785 161.801 82.9432 163.419L84.0995 156.687L82.3489 157.797ZM83.53 163.931L85.4642 162.398C84.8464 161.223 85.3551 157.876 84.7936 157.32L83.53 163.931ZM54.1013 155.172C54.082 155.513 54.7319 156.12 55.338 156.292C55.2513 154.599 54.655 151.03 55.0607 149.502C55.0925 149.344 55.017 149.066 54.733 148.845C54.2256 150.96 54.2925 153.404 54.1013 155.172ZM99.8874 145.72L100.24 146.744C100.672 144.351 100.605 141.906 101.081 139.538C98.781 140.686 99.9594 143.238 100.078 144.773C100.147 145.165 100.083 145.48 99.8874 145.72ZM85.011 154.686C87.6586 153.445 89.8904 151.085 92.0472 148.036C91.7062 148.017 91.5162 148.554 91.276 148.768C89.3855 150.737 86.7877 152.711 85.011 154.686ZM91.3879 150.417C90.6351 151.629 90.047 152.348 89.4023 152.859C90.2538 153.934 90.3907 155.948 89.77 157.647C89.6371 157.981 90.2432 158.152 90.326 157.496L91.3879 150.417ZM69.7793 159.047C69.0951 161.061 68.9476 163.265 68.9713 164.863C68.9893 165.754 69.9939 165.332 69.8176 164.82C69.7421 164.542 69.8498 164.252 69.9321 164.005C69.7365 163.835 69.8442 163.544 69.9012 163.342C69.7056 163.171 69.7691 162.856 69.8703 162.679L69.9149 162.294C69.7017 160.822 70.6686 160.261 69.7793 159.047ZM97.6734 142.926C96.3651 143.879 96.3952 145.363 96.5642 146.81C96.865 149.153 95.249 148.286 95.8149 150.781C96.1439 150.207 95.9676 149.695 96.2649 149.279L96.5737 149.866L97.6734 142.926ZM145.04 94.6531C145.534 93.5862 144.96 92.4362 145.044 90.5479C144.291 92.1702 144.189 93.5785 144.023 95.3026C143.94 95.9593 143.669 95.1001 143.486 95.1125L143.491 96.641C143.794 96.5213 144.154 96.1995 144.515 95.8778C144.616 95.7011 144.654 95.4295 145.04 94.6531ZM79.4526 161.419C78.7311 162.884 78.5904 164.564 78.5699 166.136C79.2644 166.358 80.0292 165.74 80.5727 165.406C79.9095 165.437 79.6388 164.577 79.7847 164.015L79.5955 163.731C79.3372 163.055 79.6855 162.14 79.4526 161.419ZM89.2424 154.88C88.6912 156.559 88.6578 158.359 87.8162 159.931C87.5125 160.461 88.2636 160.891 88.2138 160.159C90.1094 159.308 88.804 157.387 89.5251 156.333C89.2222 156.042 89.4187 155.392 89.2424 154.88ZM12.9291 111.697C13.4361 109.992 13.6921 106.677 13.9405 104.707C13.9469 104.593 13.7955 104.447 13.7513 104.422C12.8076 106.992 12.6283 109.354 12.9291 111.697ZM20.3931 125.302C19.8268 123.218 19.8542 121.121 20.0772 119.195C20.1089 119.037 19.7237 118.992 19.7868 119.087C19.2352 121.177 18.3863 123.684 20.3931 125.302ZM139.557 95.6201C139.923 96.4163 139.979 97.4458 140.16 98.6649C140.573 96.6127 141.061 94.8385 141.941 92.9952C141.6 92.9759 141.41 93.5125 141.17 93.727C140.657 94.3139 140.253 95.0208 139.557 95.6201ZM128.523 108.84C127.839 110.854 128.158 113.267 127.272 115.635C128.417 113.122 128.811 110.59 129.452 108.14C129.452 108.14 128.694 108.234 128.523 108.84ZM93.9481 154.348C94.2767 154.184 95.5469 153.503 95.5284 153.023C95.5237 151.495 95.3104 150.023 95.394 148.545C94.8742 150.477 94.5817 152.422 93.9481 154.348ZM91.1539 156.972C91.546 156.493 93.258 156.065 92.3116 155.054L91.9607 152.388C91.5738 153.985 90.9089 155.658 91.1539 156.972ZM143.803 93.9445C143.735 92.7318 143.787 91.4118 144.186 89.9975C143.743 90.5655 142.852 91.8151 142.491 92.1368C141.79 92.8498 142.794 92.4277 142.939 92.6867C143.16 93.2238 143.355 93.8051 143.392 94.3546L143.803 93.9445ZM107.029 141.243L108.205 140.215C107.883 139.444 108.031 137.24 107.866 137.733C107.549 138.901 107.459 140.082 107.029 141.243ZM149.986 81.4077C149.341 82.3291 148.405 83.5535 149.017 84.8425L149.986 81.4077ZM77.3531 157.811C77.1005 157.842 76.3807 157.665 76.4939 158.082C77.7444 158.152 78.9759 158.154 80.0629 157.485C80.0882 157.441 80.2272 157.403 80.2525 157.359C79.2423 157.074 78.3196 157.66 77.3531 157.811ZM151.509 80.6956C151.712 79.9316 151.751 79.2495 151.701 78.5169C151.461 78.7313 151.182 79.2174 151.094 79.5773C151.005 79.9372 151.344 81.188 151.509 80.6956ZM92.3116 155.054L92.5583 154.725L92.4913 152.281L92.0048 152.413L92.3116 155.054ZM64.2722 158.827C64.6012 158.253 64.7723 157.646 64.6531 156.933C63.7055 157.153 64.1907 158.252 64.2722 158.827ZM72.9898 163.175L73.6864 161.344L73.2064 161.362C73.0352 161.969 72.8641 162.575 72.9898 163.175ZM136.347 103.581C136.228 102.867 136.081 103.84 135.772 104.073C135.839 106.107 136.555 103.524 136.347 103.581ZM99.5957 146.844C99.8866 146.541 99.685 146.074 99.8874 145.72L99.7806 145.19C99.3885 145.669 99.3057 146.326 99.5957 146.844ZM18.8177 115.657C18.8177 115.657 18.8807 115.751 18.9249 115.777C19.1214 115.126 18.9073 114.476 19.0154 113.775C18.5474 114.387 18.8309 115.019 18.8177 115.657ZM139.267 101.967C139.538 101.595 139.843 100.654 139.3 100.578L139.267 101.967ZM142.536 97.3853C143.187 97.5817 143.378 95.403 142.84 96.855C142.777 97.1708 142.738 97.4423 142.536 97.3853ZM49.285 146.37C48.9371 146.875 49.3597 147.469 49.1002 148.024C49.5742 147.709 49.4172 146.856 49.285 146.37ZM57.2272 155.555C57.2212 155.258 57.6197 154.664 57.4365 154.677C57.4867 154.999 57.1517 155.277 57.2272 155.555ZM137.027 99.628C137.292 99.3694 137.35 98.7568 137.603 98.3149C137.306 98.321 137.072 98.8323 136.939 99.1669C136.914 99.2111 136.989 99.489 137.027 99.628ZM92.4913 152.281C92.707 151.29 91.7908 151.763 92.0048 152.413L92.4913 152.281ZM30.8467 130.41L30.9222 130.688L31.2139 129.564L30.7021 129.74C31.0114 129.917 30.9038 130.208 30.8467 130.41Z" fill="white"/>
</g>
<defs>
<clipPath id="clip0">
<rect width="112.378" height="146.24" fill="white" transform="translate(71.6848) rotate(29.8034)"/>
</clipPath>
</defs>
</svg>
