<svg width="167" height="160" viewBox="0 0 167 160" fill="none" xmlns="http://www.w3.org/2000/svg">
<path d="M113.031 95.1021C119.397 95.8792 125.763 96.6563 132.112 97.4334C132.757 97.5161 133.501 97.6484 133.848 98.194C134.344 98.9546 133.815 99.9302 133.286 100.658C125.928 111.041 118.372 121.293 110.633 131.396" stroke="#D2A16A" stroke-width="1.0543" stroke-miterlimit="10" stroke-linecap="round"/>
<path d="M28.4726 7.45197C29.8616 5.17019 31.73 3.05375 34.2267 2.06168C37.1037 0.920784 39.9808 -0.120899 43.1389 0.0113784C58.4004 0.606626 58.5657 31.3445 61.1947 41.7614C61.9718 44.8864 63.0301 48.0445 65.1465 50.4751C69.3298 55.3033 76.5554 56.0804 82.9047 55.3529C93.9168 54.0962 103.441 52.3105 114.321 55.8489C117.842 56.9898 121.265 58.5275 124.87 59.3873C129.218 60.429 133.716 60.4786 138.164 60.8093C138.726 60.8424 139.321 60.9085 139.8 61.1896C140.644 61.7022 140.958 62.81 140.809 63.7855C140.644 64.8438 139.271 66.1335 140.015 67.0098C140.545 67.6216 143.554 67.2909 144.314 67.3405C148.398 67.605 152.483 67.9853 156.567 68.316C159.84 68.5806 163.346 68.9278 165.892 70.9947C164.421 72.6646 162.569 74.004 160.502 74.8472C161.709 75.0787 162.949 74.9299 164.156 75.1283C165.363 75.3267 166.636 76.0046 166.934 77.1951C167.281 78.551 166.206 79.8572 165.016 80.5848C163.825 81.3123 162.42 81.7256 161.395 82.6681C162.519 82.5854 164.123 82.9823 163.924 84.0901C163.842 84.5035 163.511 84.8011 163.18 85.0491C160.799 86.8679 157.807 87.6451 154.897 88.3064C147.985 89.8772 140.71 90.1418 133.865 91.7622C131.087 92.4236 128.425 93.6637 125.597 94.3747C121.91 95.3006 118.223 96.1769 114.519 96.9706C100.564 99.7319 85.5337 97.5162 73.3146 90.0922C71.132 88.7694 69.0321 87.2813 67.2464 85.4625C65.3945 83.561 63.9395 81.3123 62.5836 79.0305C54.0021 64.48 50.1165 48.0445 44.7262 32.2043C44.379 31.1792 43.9987 30.1044 43.1389 29.4431C40.0965 27.0621 35.2684 26.2849 31.763 24.4827C26.3397 21.6883 25.083 13.9005 27.8774 8.46059C28.0758 8.12989 28.2577 7.7992 28.4726 7.45197Z" fill="white"/>
<path d="M41.4523 14.9918C43.0231 14.5289 43.7011 11.503 41.8988 10.9574C41.4358 10.8251 40.9398 10.9409 40.4933 11.1227C39.2698 11.6518 38.4265 12.429 39.0218 13.7352C39.4682 14.7273 40.3611 15.3225 41.4523 14.9918Z" fill="black"/>
<path d="M-0.000114441 25.7889C1.50454 26.0204 3.04226 25.8716 4.48078 25.392C3.76979 25.9212 3.05879 26.4503 2.33127 26.9794C2.21552 27.062 2.08324 27.1778 2.08324 27.3266C2.08324 27.4258 2.14939 27.5085 2.21552 27.5912C2.64543 28.0376 3.35641 28.0376 3.98473 27.988C7.55622 27.6904 10.7309 26.2188 14.1701 25.4251C18.0061 24.5322 21.8256 23.5071 25.6286 22.4654C27.8112 21.8702 31.0354 21.7379 31.052 18.6955C31.0685 16.4633 30.589 12.1974 27.3482 13.421C24.9341 14.3304 22.5531 15.3886 20.1556 16.3807C15.8897 18.1333 11.6403 19.9521 7.34126 21.6387C4.72879 22.6804 1.96751 23.6724 -0.000114441 25.7889Z" fill="#680C00"/>
<path d="M75.894 57.8167C78.2254 64.4967 80.7883 71.5073 86.1786 76.104C89.8327 79.229 94.512 80.9321 99.2575 81.7588C113.61 84.2556 129.103 78.4684 138.296 67.1918" stroke="#D2A16A" stroke-width="1.0543" stroke-miterlimit="10" stroke-linecap="round"/>
<path d="M104.929 93.1677C113.61 110.678 121.513 128.585 128.606 146.806" stroke="#D2A16A" stroke-width="1.0543" stroke-miterlimit="10" stroke-linecap="round"/>
<path d="M110.484 131.263C105.243 133.181 100.233 135.711 95.5866 138.77" stroke="#D2A16A" stroke-width="1.0543" stroke-miterlimit="10" stroke-linecap="round"/>
<path d="M109.773 131.842C107.078 136.339 105.474 141.482 105.16 146.707" stroke="#D2A16A" stroke-width="1.0543" stroke-miterlimit="10" stroke-linecap="round"/>
<path d="M109.096 132.09C103.838 135.017 99.3732 139.365 96.3143 144.557" stroke="#D2A16A" stroke-width="1.0543" stroke-miterlimit="10" stroke-linecap="round"/>
<path d="M127.333 147.616C122.307 150.278 117.677 153.668 113.61 157.669" stroke="#D2A16A" stroke-width="1.0543" stroke-miterlimit="10" stroke-linecap="round"/>
<path d="M119.777 159.157C121.579 154.329 124.44 149.882 128.094 146.244" stroke="#D2A16A" stroke-width="1.0543" stroke-miterlimit="10" stroke-linecap="round"/>
<path d="M128.375 156.76C127.218 153.37 127.118 149.633 128.127 146.211" stroke="#D2A16A" stroke-width="1.0543" stroke-miterlimit="10" stroke-linecap="round"/>
<path d="M100.779 70.3828C101.49 71.4741 102.779 72.0197 104.003 72.4496C109.939 74.4669 116.553 74.4669 122.489 72.4496" stroke="#D2A16A" stroke-width="1.0543" stroke-miterlimit="10" stroke-linecap="round"/>
<path d="M105.904 63.9509C110.385 66.0839 115.246 67.4232 120.207 67.8366" stroke="#D2A16A" stroke-width="1.0543" stroke-miterlimit="10" stroke-linecap="round"/>
<path d="M143.107 76.2196C148.58 77.0629 154.285 76.385 159.394 74.2686" stroke="#D2A16A" stroke-width="1.0543" stroke-miterlimit="10" stroke-linecap="round"/>
<path d="M142.942 83.2797C148.812 84.6687 155.078 84.3214 160.75 82.3042" stroke="#D2A16A" stroke-width="1.0543" stroke-miterlimit="10" stroke-linecap="round"/>
</svg>
