<svg width="29" height="34" viewBox="0 0 29 34" fill="none" xmlns="http://www.w3.org/2000/svg">
    <rect x="1.97913" y="21.2132" width="30" height="4" rx="2" transform="rotate(-45 1.97913 21.2132)" fill="white"></rect>
    <rect x="4.8075" width="30" height="4" rx="2" transform="rotate(45 4.8075 0)" fill="white"></rect>
    <path d="M0.0097019 32.1173C1.80712e-08 32.1744 0 32.2314 0 32.279C0 32.6975 0.31046 32.9638 0.698536 32.9638C1.19333 32.9638 1.38737 32.745 1.45528 32.298L2.02769 28.4271H2.0471L3.21132 32.4121C3.27924 32.6404 3.46357 32.9638 3.98748 32.9638C4.51138 32.9638 4.69571 32.6404 4.76363 32.4121L5.92785 28.4271H5.94726L6.51967 32.298C6.58758 32.745 6.78162 32.9638 7.27641 32.9638C7.66449 32.9638 7.97495 32.6975 7.97495 32.279C7.97495 32.2314 7.97495 32.1744 7.96525 32.1173L7.06297 26.8102C7.00476 26.4679 6.62639 26.0779 6.11219 26.0779C5.62709 26.0779 5.24872 26.4203 5.142 26.7627L3.99718 30.529H3.97777L2.83295 26.7627C2.72623 26.4203 2.34786 26.0779 1.86276 26.0779C1.34856 26.0779 0.970189 26.4679 0.911977 26.8102L0.0097019 32.1173Z" fill="white"></path>
    <path d="M8.64552 32.1934C8.64552 32.6214 8.96568 32.9067 9.39256 32.9067H11.8956C12.3516 32.9067 12.5845 32.5738 12.5845 32.2505C12.5845 31.9176 12.3613 31.5942 11.8956 31.5942H10.1008V30.1486H11.6919C12.1576 30.1486 12.4001 29.8157 12.4001 29.4923C12.4001 29.1594 12.1673 28.8361 11.6919 28.8361H10.1008V27.4475H11.8083C12.2643 27.4475 12.4972 27.1146 12.4972 26.7912C12.4972 26.4583 12.274 26.135 11.8083 26.135H9.40226C8.88806 26.135 8.64552 26.4869 8.64552 26.9624V32.1934Z" fill="white"></path>
    <path d="M13.1364 32.2219C13.1364 32.6975 13.4469 32.9638 13.8641 32.9638C14.2813 32.9638 14.5917 32.6975 14.5917 32.2219V30.1486H17.6381V32.2219C17.6381 32.6975 17.9486 32.9638 18.3657 32.9638C18.7829 32.9638 19.0934 32.6975 19.0934 32.2219V26.8198C19.0934 26.3442 18.7829 26.0779 18.3657 26.0779C17.9486 26.0779 17.6381 26.3442 17.6381 26.8198V28.8361H14.5917V26.8198C14.5917 26.3442 14.2813 26.0779 13.8641 26.0779C13.4469 26.0779 13.1364 26.3442 13.1364 26.8198V32.2219Z" fill="white"></path>
    <path d="M27.4865 29.5208C27.4865 30.6812 26.8947 31.7083 25.6625 31.7083C24.4304 31.7083 23.8386 30.6812 23.8386 29.5208C23.8386 28.37 24.4498 27.3333 25.6625 27.3333C26.8753 27.3333 27.4865 28.37 27.4865 29.5208ZM22.3736 30.1486C22.6356 31.8035 23.9065 33.0208 25.6625 33.0208C27.6514 33.0208 29 31.4896 29 29.5208C29 27.5901 27.6126 26.0208 25.6625 26.0208C23.9162 26.0208 22.655 27.2002 22.3833 28.8361H21.4228V26.8198C21.4228 26.3442 21.1124 26.0779 20.6952 26.0779C20.278 26.0779 19.9675 26.3442 19.9675 26.8198V32.2219C19.9675 32.6975 20.278 32.9638 20.6952 32.9638C21.1124 32.9638 21.4228 32.6975 21.4228 32.2219V30.1486H22.3736Z" fill="white"></path>
</svg>