<svg width="379" height="459" viewBox="0 0 379 459" fill="none" xmlns="http://www.w3.org/2000/svg">
<path d="M257.572 358.468C269.981 335.907 274.885 310.114 279.588 284.82C281.223 276.022 282.857 267.091 282.057 258.193C281.556 252.662 279.955 246.996 276.085 243.031C272.216 239.065 265.578 237.432 260.941 240.431C257.038 242.964 255.504 247.863 254.403 252.395C250.367 269.524 249.499 287.153 244.729 304.148C239.892 321.344 232.654 337.873 223.213 353.036" fill="#BA9765"/>
<path d="M153.195 332.008C166.772 314.679 175.145 293.818 181.549 272.723C184.952 261.426 187.887 249.695 186.853 237.965C186.32 231.8 184.418 225.368 179.715 221.369C175.011 217.37 166.905 217.004 163.136 221.936C160.868 224.902 160.667 228.901 160.501 232.633C159.6 252.761 157.065 273.556 146.724 290.852C140.186 301.816 130.545 311.28 127.31 323.61" fill="#BA9765"/>
<path d="M273.317 413.321C286.426 399.791 297.568 383.728 298.969 366.166C300.737 344.338 275.718 346.371 260.574 345.271C251.701 344.638 242.861 346.271 233.988 346.971C206.201 349.203 177.913 341.305 154.696 326.009C152.094 324.276 123.14 306.148 122.806 308.647C124.674 294.284 126.442 279.021 120.204 265.958C104.393 232.9 54.5895 236.365 26.4689 248.162C29.0708 249.429 31.5059 251.095 33.6075 253.061C26.5356 252.028 19.1969 252.995 12.6588 255.827C16.0279 256.427 21.4319 258.926 23.2999 261.959C17.4957 261.459 11.5246 262.725 6.42087 265.558C9.323 266.424 12.025 267.857 14.4267 269.69C11.6914 267.591 5.58694 283.354 5.22 284.886C3.3186 292.518 2.38455 300.149 3.71887 307.947C5.98721 321.011 10.4905 333.074 21.6654 340.706C32.2398 347.937 45.2827 351.17 54.823 359.967C65.0972 369.465 69.1669 383.695 75.7384 396.058C94.719 431.883 152.328 459.975 191.857 458.243C213.373 457.309 233.654 447.245 250.433 433.782C257.739 427.917 265.844 421.019 273.317 413.321Z" fill="#C49A6C"/>
<path d="M297.234 376.863C319.751 344.905 329.958 294.351 330.292 255.794C330.358 248.762 330.325 241.364 326.956 235.199C323.587 229.034 315.614 224.768 309.276 227.868C302.972 231 301.537 239.331 301.971 246.363C303.272 267.224 298.301 292.218 294.032 313.079C289.895 333.408 281.889 353.536 267.546 368.565" fill="#C49A6C"/>
<path d="M105.027 261.092C94.9192 251.295 79.9749 247.396 66.2315 249.795C61.0611 250.695 54.7564 252.095 51.3539 256.294C50.52 257.327 46.2168 266.424 45.4162 266.424C37.1435 266.358 28.9709 270.757 24.4676 277.688C22.4327 280.854 21.1318 284.453 20.1311 288.086C17.8961 296.35 17.2956 305.181 19.4305 313.479C23.3667 328.775 36.0761 338.473 51.5541 339.473C66.365 340.439 83.1439 337.04 95.4863 328.409C101.557 324.176 105.961 317.878 109.063 311.146C113.6 301.282 116.402 291.651 114.634 280.921C113.433 273.589 110.464 266.391 105.16 261.192C105.093 261.159 105.06 261.126 105.027 261.092Z" fill="#FFD191"/>
<path d="M86.88 280.621C88.0475 279.821 89.2484 278.888 90.4826 277.888C95.7865 273.49 105.961 273.19 112.565 273.39C107.829 263.692 96.7872 257.327 85.9793 258.193C77.373 258.86 65.9646 262.792 63.2293 271.923C61.6281 277.289 69.0002 281.954 73.7036 283.12C79.2077 284.453 83.0438 283.22 86.88 280.621Z" fill="#9F7652"/>
<path d="M34.9084 332.608C32.9069 329.942 31.606 326.576 30.772 323.577C29.2709 318.178 27.4029 310.113 29.0041 304.648C31.1056 297.517 36.3094 292.318 42.9476 290.918C48.5851 289.752 55.9572 291.152 58.0587 297.883C59.5598 302.682 57.0914 307.847 54.2893 311.846C51.7208 315.512 47.918 318.911 46.2501 323.01C44.3487 327.676 44.5155 333.507 45.9499 338.24C45.8831 338.073 39.6452 336.573 38.6779 336.04C37.2101 335.207 35.9758 334.007 34.9084 332.608Z" fill="#9F7652"/>
<path d="M50.52 300.749C52.7216 300.316 56.4577 299.216 53.7557 296.517C51.5875 294.351 47.6513 294.884 45.3162 296.284C42.6476 297.85 40.913 300.849 40.913 303.948C40.913 305.281 41.5134 306.948 42.8477 307.081C44.8492 307.281 45.2495 304.382 46.4837 302.782C47.4177 301.516 49.0189 301.049 50.52 300.749Z" fill="#60482E"/>
<path d="M87.8141 270.524C90.0158 270.09 93.7518 268.991 91.0499 266.291C88.8816 264.125 84.9454 264.658 82.6103 266.058C79.9417 267.624 78.2071 270.624 78.2071 273.723C78.2071 275.056 78.8076 276.722 80.1419 276.855C82.1433 277.055 82.5436 274.156 83.7779 272.556C84.7119 271.29 86.313 270.824 87.8141 270.524Z" fill="#60482E"/>
<path d="M90.8496 294.751C91.1832 292.451 90.8162 285.22 90.8496 285.187C84.3782 289.319 75.6051 289.785 68.1996 288.986C67.8994 288.952 67.5325 288.919 67.2656 289.086C66.2982 289.719 66.3649 295.384 66.1982 296.784C65.7311 300.516 65.164 303.882 63.2626 307.214C62.9624 307.781 62.6622 308.547 63.1292 308.947C63.3294 309.147 63.6296 309.18 63.8965 309.214C70.2011 309.947 76.1388 308.247 81.6762 305.315C84.9119 303.582 89.2818 298.716 90.7161 295.284C90.7829 295.151 90.8162 294.984 90.8496 294.751Z" fill="#C49A6C"/>
<path d="M81.109 292.718C83.3106 292.418 85.3121 293.018 86.2795 294.951C87.1801 296.75 86.7465 299.05 85.5456 300.683C84.3447 302.315 82.5101 303.382 80.642 304.115C78.1402 305.081 74.8044 305.248 73.2699 303.082C70.1343 298.65 76.1054 293.384 81.109 292.718Z" fill="#60482E"/>
<path d="M89.9823 310.813C88.4812 308.514 86.6799 306.414 84.6784 304.548C83.3775 303.348 81.9097 302.149 81.4427 300.449C81.7429 300.649 82.0765 300.849 82.3767 301.082" stroke="#60482E" stroke-width="0.9408" stroke-miterlimit="10"/>
<path d="M72.8361 319.411C71.1682 317.479 70.5678 314.679 71.335 312.247" stroke="#60482E" stroke-width="0.9408" stroke-miterlimit="10"/>
<path d="M101.257 296.75C98.7221 295.651 95.8533 295.351 93.1513 295.851" stroke="#60482E" stroke-width="0.9408" stroke-miterlimit="10"/>
<path d="M93.9183 306.448C91.9502 309.681 88.6144 311.947 84.9784 313.08C81.3424 314.213 77.4729 314.313 73.7035 313.946C72.8028 313.846 71.8688 313.946 71.5686 314.846C74.9711 316.712 77.2728 317.779 81.2424 317.545C84.845 317.312 88.2475 316.146 91.4832 314.613C96.1533 312.38 98.6551 305.715 98.2549 300.749C98.1548 299.683 97.988 298.617 97.4876 297.684C97.0206 296.751 96.1867 295.917 95.1526 295.651C95.0191 295.617 94.8523 295.584 94.7189 295.651C94.452 295.784 94.452 296.117 94.4854 296.417C94.9191 300.15 95.9198 303.049 93.9183 306.448Z" fill="#60482E"/>
<path d="M203.232 245.53C197.661 243.93 192.157 242.197 186.686 240.298C154.563 229.167 124.241 212.871 97.1875 192.31C83.6776 182.013 70.9348 170.682 59.2263 158.385C49.4191 148.088 40.5125 136.957 32.6735 125.127C24.9011 113.463 19.4304 100.267 11.4579 88.9029C2.88492 76.7393 -2.38562 60.9099 -7.62277 47.0468C-13.2603 32.2172 -18.0638 17.121 -22 1.75827C-16.6294 1.09177 -8.45673 -1.84082 -3.45306 1.75827C1.61734 5.39068 3.6188 16.6212 5.58694 22.2864C9.22293 32.7837 12.8589 43.3144 16.4949 53.8117C20.0309 64.0758 25.5015 73.0402 29.5712 82.9044C34.5415 95.0013 41.7802 106.565 49.4858 117.096C69.1669 143.889 96.4536 167.316 124.141 185.512C152.995 204.474 185.152 218.47 218.81 226.268C270.815 238.265 326.356 235.266 376.459 216.837C376.926 216.67 380.062 239.231 378.627 242.031C375.625 247.929 370.254 247.996 363.85 249.495C346.17 253.628 328.09 256.194 309.944 257.227C274.051 259.326 237.791 255.427 203.232 245.53Z" fill="#A14F18"/>
<path d="M74.2041 394.759C73.3034 409.422 76.6392 424.351 83.9445 437.148C85.2455 439.447 86.7132 441.713 88.7814 443.38C95.086 448.478 104.526 446.312 111.765 442.58C120.004 438.348 127.343 432.449 133.281 425.318C142.821 413.821 152.028 408.822 163.47 400.024C166.138 397.991 169.074 395.159 168.373 391.893C167.806 389.227 165.071 387.727 162.602 386.561C157.865 384.361 152.361 382.329 147.558 384.428C144.422 385.794 142.287 388.66 140.219 391.36C134.048 399.491 119.404 413.687 109.43 416.786C92.8844 421.919 93.8184 397.391 95.92 388.127C97.4544 381.395 101.924 369.732 93.4181 365.466C89.9156 363.7 85.4456 365.066 82.6102 367.799C79.7748 370.532 78.2737 374.331 77.1729 378.096C75.5384 383.528 74.571 389.127 74.2041 394.759Z" fill="#BA9765"/>
<path d="M167.506 386.494C166.472 387.36 165.504 388.394 165.171 389.693C164.804 390.993 165.304 392.592 166.505 393.159C167.572 393.626 173.477 388.46 174.644 387.86C178.547 385.794 184.185 385.461 188.588 385.261C188.988 384.161 187.787 383.128 186.686 382.695C180.348 380.196 172.543 382.195 167.506 386.494Z" fill="#835A34"/>
<path d="M159.166 381.562C158.499 382.728 157.965 384.028 158.065 385.394C158.199 386.727 159.166 388.06 160.534 388.16C161.701 388.227 165.437 381.362 166.305 380.362C169.24 377.096 174.444 374.83 178.48 373.097C178.48 371.931 176.979 371.398 175.812 371.365C169.04 371.198 162.369 375.763 159.166 381.562Z" fill="#835A34"/>
<path d="M146.557 382.129C146.29 383.428 146.123 384.861 146.657 386.094C147.157 387.327 148.525 388.327 149.826 388.027C150.96 387.76 152.495 380.062 153.062 378.863C154.896 374.864 159.199 371.165 162.535 368.332C162.168 367.199 160.6 367.132 159.466 367.466C152.928 369.298 147.925 375.63 146.557 382.129Z" fill="#835A34"/>
<path d="M269.247 241.497C269.381 240.164 269.647 238.765 270.515 237.732C271.382 236.698 272.95 236.165 274.117 236.832C275.118 237.432 274.318 245.23 274.484 246.529C275.051 250.895 278.054 255.694 280.422 259.393C279.755 260.359 278.22 259.959 277.22 259.326C271.515 255.627 268.613 248.096 269.247 241.497Z" fill="#624323"/>
<path d="M259.206 239.831C259.773 238.632 260.541 237.398 261.708 236.732C262.876 236.065 264.544 236.099 265.378 237.132C266.111 238.032 262.642 245.063 262.375 246.363C261.408 250.662 262.542 256.194 263.476 260.493C262.509 261.159 261.208 260.259 260.507 259.326C256.471 253.861 256.371 245.796 259.206 239.831Z" fill="#624323"/>
<path d="M247.198 235.066C248.098 234.066 249.166 233.133 250.5 232.833C251.801 232.533 253.402 233.066 253.902 234.299C254.336 235.399 248.966 241.064 248.298 242.231C246.097 246.03 245.563 251.695 245.163 256.06C244.029 256.427 243.061 255.161 242.661 254.061C240.426 247.663 242.694 239.931 247.198 235.066Z" fill="#624323"/>
<path d="M182.183 224.102C182.317 222.769 182.584 221.369 183.451 220.336C184.318 219.303 185.886 218.77 187.054 219.436C188.054 220.036 187.254 227.834 187.42 229.134C187.988 233.5 190.99 238.298 193.358 241.997C192.691 242.964 191.157 242.564 190.156 241.931C184.452 238.232 181.583 230.7 182.183 224.102Z" fill="#624323"/>
<path d="M172.176 222.403C172.743 221.203 173.51 219.97 174.678 219.303C175.845 218.637 177.513 218.67 178.347 219.703C179.081 220.603 175.612 227.635 175.345 228.934C174.377 233.233 175.511 238.765 176.446 243.064C175.478 243.73 174.177 242.831 173.477 241.898C169.407 236.466 169.307 228.401 172.176 222.403Z" fill="#624323"/>
<path d="M160.167 217.67C161.068 216.671 162.135 215.737 163.469 215.437C164.77 215.138 166.371 215.671 166.872 216.904C167.305 218.004 161.935 223.669 161.268 224.835C159.066 228.634 158.532 234.299 158.132 238.665C156.998 239.032 156.031 237.765 155.63 236.665C153.362 230.267 155.664 222.536 160.167 217.67Z" fill="#624323"/>
<path d="M310.944 241.764C311.478 240.531 312.212 239.298 313.346 238.598C314.48 237.898 316.148 237.865 317.049 238.898C317.816 239.798 314.547 246.896 314.28 248.196C313.446 252.495 314.747 258.027 315.781 262.292C314.847 262.992 313.513 262.126 312.779 261.193C308.576 255.894 308.242 247.829 310.944 241.764Z" fill="#624323"/>
<path d="M301.971 236.999C302.905 236.032 304.006 235.133 305.307 234.866C306.641 234.599 308.209 235.166 308.676 236.432C309.076 237.532 303.572 243.097 302.872 244.197C300.57 247.963 299.903 253.595 299.402 257.927C298.268 258.26 297.334 256.994 296.967 255.861C294.866 249.429 297.368 241.731 301.971 236.999Z" fill="#624323"/>
<path d="M292.097 228.668C293.265 228.034 294.599 227.468 295.933 227.601C297.268 227.734 298.602 228.734 298.702 230.067C298.769 231.234 291.83 234.899 290.863 235.799C287.56 238.698 285.259 243.897 283.491 247.896C282.323 247.896 281.79 246.396 281.756 245.197C281.656 238.432 286.293 231.833 292.097 228.668Z" fill="#624323"/>
<path d="M320.318 219.236C324.854 220.036 329.658 220.969 333.127 224.035C336.596 227.068 337.997 232.966 334.762 236.265C333.594 237.465 331.993 238.165 330.425 238.798C323.887 241.531 316.882 244.13 309.91 242.997C302.905 241.864 296.267 235.532 297.434 228.534C298.235 223.769 302.438 220.103 307.008 218.537C311.578 216.97 316.548 217.07 321.418 217.204" fill="#C49A6C"/>
<path d="M262.776 218.303C260.374 218.003 258.006 218.003 255.837 218.303C246.931 219.503 244.262 227.668 249.066 234.533C255.771 244.13 271.015 246.163 279.988 238.665C282.69 236.399 284.925 232.8 283.758 229.5C283.224 228.034 282.09 226.868 280.922 225.835C276.386 221.902 269.414 219.07 262.776 218.303Z" fill="#C49A6C"/>
<path d="M168.106 194.909C162.836 193.91 158.065 195.209 155.397 200.708C153.262 205.14 154.429 210.572 156.998 214.771C162.569 223.902 174.744 228.434 184.952 225.102C188.655 223.902 192.424 221.236 192.858 217.337C193.091 215.138 192.19 212.971 191.156 211.039C188.188 205.607 177.413 196.676 168.106 194.909Z" fill="#C49A6C"/>
<path d="M257.338 414.387C254.336 416.52 251.768 419.219 249.833 422.319" stroke="#9A714F" stroke-width="0.8993" stroke-miterlimit="10" stroke-linecap="round"/>
<path d="M219.477 427.684C219.377 428.45 218.577 428.884 217.876 429.15C216.008 429.917 214.107 430.583 212.172 431.083" stroke="#9A714F" stroke-width="0.8993" stroke-miterlimit="10" stroke-linecap="round"/>
<path d="M238.024 419.286C236.423 420.586 234.822 421.885 233.221 423.185" stroke="#9A714F" stroke-width="0.8993" stroke-miterlimit="10" stroke-linecap="round"/>
<path d="M207.502 444.18C205.433 445.346 203.098 445.979 200.73 446.046" stroke="#9A714F" stroke-width="0.8993" stroke-miterlimit="10" stroke-linecap="round"/>
<path d="M167.772 436.981C170.708 438.214 173.844 439.014 177.013 439.314" stroke="#9A714F" stroke-width="0.8993" stroke-miterlimit="10" stroke-linecap="round"/>
<path d="M142.354 438.181C145.156 440.047 148.125 441.647 151.261 442.88" stroke="#9A714F" stroke-width="0.8993" stroke-miterlimit="10" stroke-linecap="round"/>
<path d="M185.586 448.312C183.217 448.545 180.849 448.445 178.514 448.012C178.314 447.945 178.314 448.379 178.514 448.312" stroke="#9A714F" stroke-width="0.8993" stroke-miterlimit="10" stroke-linecap="round"/>
<path d="M108.929 391.959C110.464 393.692 112.132 395.259 113.933 396.725" stroke="#9A714F" stroke-width="0.8993" stroke-miterlimit="10" stroke-linecap="round"/>
<path d="M164.77 419.386C167.572 420.052 170.308 421.052 172.91 422.318" stroke="#9A714F" stroke-width="0.8993" stroke-miterlimit="10" stroke-linecap="round"/>
<path d="M204.6 432.049C202.998 432.449 201.364 432.649 199.729 432.616" stroke="#9A714F" stroke-width="0.8993" stroke-miterlimit="10" stroke-linecap="round"/>
<path d="M235.822 432.382C233.754 433.416 231.686 434.415 229.618 435.448" stroke="#9A714F" stroke-width="0.8993" stroke-miterlimit="10" stroke-linecap="round"/>
<path d="M285.059 376.163C284.725 378.463 283.958 380.695 282.79 382.695C282.924 382.495 283.057 382.328 283.191 382.128" stroke="#9A714F" stroke-width="0.8993" stroke-miterlimit="10" stroke-linecap="round"/>
<path d="M273.45 396.158C272.182 398.491 270.548 400.624 268.647 402.457" stroke="#9A714F" stroke-width="0.8993" stroke-miterlimit="10" stroke-linecap="round"/>
<path d="M270.848 383.461C270.181 385.561 269.047 387.527 267.546 389.16" stroke="#9A714F" stroke-width="0.8993" stroke-miterlimit="10" stroke-linecap="round"/>
<path d="M252.901 394.792C251.4 396.259 249.933 397.725 248.432 399.224C248.298 399.358 248.165 399.524 248.265 399.658C248.331 399.824 248.665 399.624 248.498 399.558" stroke="#9A714F" stroke-width="0.8993" stroke-miterlimit="10" stroke-linecap="round"/>
<path d="M229.151 408.589C227.35 410.255 225.215 411.521 222.913 412.388" stroke="#9A714F" stroke-width="0.8993" stroke-miterlimit="10" stroke-linecap="round"/>
<path d="M197.561 418.086C195.593 418.486 193.592 418.886 191.624 419.286" stroke="#9A714F" stroke-width="0.8993" stroke-miterlimit="10" stroke-linecap="round"/>
<path d="M71.1351 357.968C72.9364 359.601 74.4375 361.534 75.5049 363.733" stroke="#9A714F" stroke-width="0.8993" stroke-miterlimit="10" stroke-linecap="round"/>
<path d="M315.181 331.441C314.914 333.374 314.447 335.274 313.813 337.14" stroke="#9A714F" stroke-width="0.8993" stroke-miterlimit="10" stroke-linecap="round"/>
<path d="M301.204 355.802C301.704 356.802 301.304 358.001 300.937 359.068C300.003 361.6 299.069 364.166 298.135 366.699" stroke="#9A714F" stroke-width="0.8993" stroke-miterlimit="10" stroke-linecap="round"/>
<path d="M319.284 304.548C319.351 306.048 318.984 307.581 318.283 308.914" stroke="#9A714F" stroke-width="0.8993" stroke-miterlimit="10" stroke-linecap="round"/>
<path d="M307.575 343.005C307.175 344.172 306.741 345.338 306.341 346.471C306.307 346.604 306.207 346.771 306.074 346.771C305.94 346.771 305.974 346.471 306.074 346.571" stroke="#9A714F" stroke-width="0.8993" stroke-miterlimit="10" stroke-linecap="round"/>
<path d="M257.705 360.634C254.403 362.434 251.1 364.233 247.798 366.033" stroke="#9A714F" stroke-width="0.8993" stroke-miterlimit="10" stroke-linecap="round"/>
<path d="M116.802 185.778C119.304 187.611 121.906 189.311 124.574 190.877C124.441 190.81 124.341 190.744 124.207 190.677" stroke="#9A714F" stroke-width="0.8993" stroke-miterlimit="10" stroke-linecap="round"/>
<path d="M92.1171 165.717C93.0178 166.583 93.9185 167.416 94.8525 168.283" stroke="#9A714F" stroke-width="0.8993" stroke-miterlimit="10" stroke-linecap="round"/>
<path d="M102.558 177.58C104.359 178.413 106.027 179.48 107.528 180.746C107.361 180.546 107.195 180.313 106.994 180.113" stroke="#9A714F" stroke-width="0.8993" stroke-miterlimit="10" stroke-linecap="round"/>
<path d="M143.855 204.374C145.423 205.44 146.991 206.507 148.559 207.573" stroke="#9A714F" stroke-width="0.8993" stroke-miterlimit="10" stroke-linecap="round"/>
<path d="M124.908 197.709C125.608 198.075 126.276 198.475 126.976 198.842" stroke="#9A714F" stroke-width="0.8993" stroke-miterlimit="10" stroke-linecap="round"/>
<path d="M225.515 230.667C222.846 230.1 220.178 229.467 217.576 228.667" stroke="#9A714F" stroke-width="0.8993" stroke-miterlimit="10" stroke-linecap="round"/>
<path d="M357.512 227.368C356.078 227.601 354.676 228.134 353.442 228.901" stroke="#9A714F" stroke-width="0.8993" stroke-miterlimit="10" stroke-linecap="round"/>
<path d="M348.305 237.232C345.77 237.598 343.235 237.932 340.699 238.298" stroke="#9A714F" stroke-width="0.8993" stroke-miterlimit="10" stroke-linecap="round"/>
<path d="M369.32 230.767C367.119 232.333 364.45 233.233 361.748 233.333" stroke="#9A714F" stroke-width="0.8993" stroke-miterlimit="10" stroke-linecap="round"/>
<path d="M67.0986 144.089C68.4996 145.389 69.8673 146.688 71.2683 147.988" stroke="#9A714F" stroke-width="0.8993" stroke-miterlimit="10" stroke-linecap="round"/>
<path d="M79.0076 161.018C80.0417 162.018 81.0758 163.018 82.0765 163.984" stroke="#9A714F" stroke-width="0.8993" stroke-miterlimit="10" stroke-linecap="round"/>
<path d="M224.014 373.897C219.677 376.43 214.774 378.063 209.77 378.563" stroke="#9A714F" stroke-width="0.8993" stroke-miterlimit="10" stroke-linecap="round"/>
<path d="M222.046 359.468C217.609 360.234 213.206 361.001 208.769 361.767" stroke="#9A714F" stroke-width="0.8993" stroke-miterlimit="10" stroke-linecap="round"/>
<path d="M246.797 378.163C242.628 379.929 238.458 381.695 234.288 383.462" stroke="#9A714F" stroke-width="0.8993" stroke-miterlimit="10" stroke-linecap="round"/>
<path d="M226.416 392.992C222.079 395.259 217.576 397.225 212.939 398.891" stroke="#9A714F" stroke-width="0.8993" stroke-miterlimit="10" stroke-linecap="round"/>
<path d="M183.084 348.904C179.214 348.537 175.378 347.937 171.575 347.104" stroke="#9A714F" stroke-width="0.8993" stroke-miterlimit="10" stroke-linecap="round"/>
<path d="M119.771 339.539C123.573 341.972 127.376 344.371 131.212 346.804" stroke="#9A714F" stroke-width="0.8993" stroke-miterlimit="10" stroke-linecap="round"/>
<path d="M125.241 359.734C128.677 362.434 132.413 364.766 136.349 366.599" stroke="#9A714F" stroke-width="0.8993" stroke-miterlimit="10" stroke-linecap="round"/>
<path d="M101.958 354.036C104.559 355.968 107.161 357.901 109.73 359.801" stroke="#9A714F" stroke-width="0.8993" stroke-miterlimit="10" stroke-linecap="round"/>
<path d="M124.608 375.664C126.742 377.097 128.911 378.53 131.046 379.962" stroke="#9A714F" stroke-width="0.8993" stroke-miterlimit="10" stroke-linecap="round"/>
<path d="M107.762 372.831C109.897 374.497 112.065 376.163 114.2 377.863" stroke="#9A714F" stroke-width="0.8993" stroke-miterlimit="10" stroke-linecap="round"/>
<path d="M181.282 364.167C185.485 365.266 189.689 366.366 193.892 367.432" stroke="#9A714F" stroke-width="0.8993" stroke-miterlimit="10" stroke-linecap="round"/>
<path d="M151.861 355.169C153.696 356.102 155.564 357.068 157.398 358.002" stroke="#9A714F" stroke-width="0.8993" stroke-miterlimit="10" stroke-linecap="round"/>
<path d="M197.894 397.625C193.291 398.325 188.554 398.358 183.917 397.658" stroke="#9A714F" stroke-width="0.8993" stroke-miterlimit="10" stroke-linecap="round"/>
</svg>
