<svg width="109" height="111" viewBox="0 0 109 111" fill="none" xmlns="http://www.w3.org/2000/svg">
<g clip-path="url(#clip0)">
<path d="M49.7938 1.21637L71.8064 36.7972C81.6741 34.9725 93.6671 32.9958 107.026 34.5164C107.482 34.5164 110.214 36.0369 108.696 37.5575C101.561 44.8561 95.1852 50.9383 87.4429 57.3246C85.0139 59.3013 90.7827 64.6232 91.2381 67.5123C93.0599 78.4602 99.1323 90.3205 100.65 102.333C100.802 103.701 102.776 108.871 100.954 107.351C86.9874 97.0109 72.5654 87.7355 59.5097 77.5479C52.3746 89.104 45.8468 99.4438 37.8008 108.871C37.0418 109.631 34.0055 111.912 34.0055 110.088C34.0055 95.9465 31.273 83.326 30.6657 69.3369C22.0125 63.1027 12.6003 57.0205 2.58076 51.2424C0.151788 49.8739 -0.759075 45.0081 0.759031 44.8561L38.2562 41.6629C40.9888 27.978 44.7841 15.8136 46.7576 2.43281C46.9094 1.36842 46.7576 -1.06446 48.7312 -7.18236e-05C48.883 0.304038 49.642 0.912257 49.7938 1.21637ZM59.2061 45.9205L87.1393 71.4657C86.6838 67.0561 84.5585 63.8629 81.5223 61.4301L50.2493 38.0136C51.0083 39.078 51.6156 39.5342 50.0975 40.4465C48.5794 38.926 45.8468 37.5575 44.9359 35.1246C44.025 32.9958 47.9721 33.604 49.0348 34.2123C58.447 40.5986 67.5557 48.0492 76.0571 55.0438L56.4735 37.1013C55.5626 37.1013 54.9554 36.4931 54.5 35.8849C55.4108 35.4287 56.0181 36.4931 56.4735 37.1013L58.9025 36.9492C65.8858 42.1191 75.9053 51.2424 83.1922 57.3246C76.8161 47.8972 66.0376 40.9027 56.7771 34.0602C56.4735 33.9081 55.7145 33.2999 55.4108 33.1479C55.259 34.6684 57.0808 34.5164 57.688 35.7328C55.8663 35.7328 54.5 34.0602 53.8927 32.6917C53.2855 31.4753 51.9192 30.2588 50.4011 30.4109L52.5264 32.9958C50.0975 31.6273 46.3022 29.1944 46.9094 25.6972C52.6782 28.1301 58.1434 33.2999 62.0905 36.341L46.1504 21.1355C44.9359 26.6095 43.266 32.2355 42.6588 38.0136L69.0738 58.541C64.5195 53.6753 58.9025 48.8095 53.7409 44.2479C55.4108 43.9438 56.3217 45.9205 57.8398 45.7684L57.3844 44.704L56.3217 43.6397C54.5 43.4876 52.8301 41.815 52.3746 40.2944C53.8927 41.2068 55.259 42.2712 56.3217 43.6397L57.3844 44.704L58.447 45.7684L59.2061 45.9205ZM28.5404 60.2136C35.0682 65.0794 41.4443 69.9451 47.3649 75.5712C48.4276 76.4835 52.5264 78.6123 49.4902 80.1328C44.3287 76.0273 39.4707 71.9219 34.0055 68.7287C35.3718 69.3369 34.3092 71.7698 35.6755 71.1616C40.3816 75.8753 45.695 80.1328 51.1601 84.0862C52.6782 81.5013 54.9554 79.5246 55.7145 76.7876C43.266 66.904 30.6657 57.6287 17.0028 49.8739C17.61 51.5465 19.4317 52.6109 19.4317 54.2835L20.039 53.2191C23.8342 53.2191 23.6824 60.6698 28.5404 60.2136ZM29.9067 49.1136C33.2465 55.9561 39.6225 58.389 44.7841 63.1027C56.1699 73.5945 71.3509 80.2849 83.6476 89.7123C65.2785 76.4835 49.642 60.6698 29.9067 49.1136ZM83.344 86.5191C69.9846 75.2671 56.7771 64.015 43.4178 51.8506C45.3913 52.6109 46.9094 53.6753 48.1239 54.8917C48.4276 53.6753 43.5696 49.4177 41.5961 49.4177L40.9888 49.1136L40.5334 48.6575L39.6225 48.3534C37.8008 44.3999 32.7911 45.1602 28.9958 46.5287C49.1866 57.4766 64.9749 73.5945 83.344 86.5191ZM89.4164 88.952V89.5602C91.8454 91.2328 94.2743 94.2739 96.8551 95.4903C91.8454 83.7821 80.4596 77.6999 71.0473 70.0972L52.8301 56.7164C63.1532 67.2081 77.8788 77.5479 88.2019 88.1917L88.8092 88.4958L89.4164 88.952ZM51.1601 46.8328C51.0083 47.8972 51.0083 48.9616 52.071 49.8739C65.734 60.0616 79.3969 72.378 92.149 84.0862C91.5418 81.5013 90.6309 78.6123 88.3537 76.4835C76.6643 65.9917 63.6086 56.7164 51.1601 46.8328ZM34.6128 79.5246C35.6755 86.8232 36.2827 95.9465 36.5863 103.853C38.4081 103.245 39.0153 100.356 40.837 99.1396C38.8635 100.508 38.2562 97.1629 40.5334 97.6191C43.266 98.2273 41.2925 95.0342 41.2925 95.0342C38.7117 92.1451 36.5863 89.2561 36.2827 86.3671C35.8273 83.1739 39.3189 86.215 39.6225 86.215C41.7479 86.215 36.8899 81.6534 34.6128 79.5246ZM21.1016 56.1082C22.9234 55.9561 20.4944 54.1314 19.2799 54.2835C17.4582 54.2835 13.3593 46.9849 8.04594 48.6575C12.4484 54.7397 20.9498 58.9972 26.7186 62.1903C25.8078 59.7575 22.6198 58.541 21.1016 56.1082ZM49.642 6.99445C48.883 7.60267 48.2757 12.3164 49.7938 14.5972C52.5264 18.8547 56.3217 22.6561 61.1796 26.4575C57.3844 19.3109 53.4373 13.0766 49.642 6.99445ZM24.8969 47.8972C23.0752 46.3766 20.798 48.2013 17.9136 47.5931L41.4443 63.2547C39.1671 60.6698 36.1309 58.6931 33.5501 56.1082C29.603 52.3068 29.2994 50.178 24.8969 47.8972ZM39.6225 82.4136C42.3551 84.0862 45.695 86.3671 47.5167 89.2561C48.7312 88.6479 49.9457 86.0629 47.3649 85.4547C45.3913 84.9986 43.7214 83.478 42.8106 82.4136C47.6685 83.478 42.0515 78.9164 42.0515 78.9164C39.0153 76.4835 36.8899 74.2027 34.6128 72.5301C34.6128 73.8986 33.7019 76.1794 35.8273 76.9397C38.1044 77.6999 41.1406 78.9164 42.3551 81.6534C40.5334 81.8054 39.0153 79.9808 37.4972 79.8287C37.4972 81.1972 38.7117 81.9575 39.6225 82.4136ZM77.727 39.078C77.2716 38.3177 73.7799 39.9903 72.11 40.4465C77.1198 42.8794 81.0668 47.289 86.3802 50.026C85.4693 45.6164 80.7632 43.6397 77.727 39.078ZM49.4902 21.1355C49.642 22.504 51.7674 22.8081 51.1601 23.8725C56.6253 26.6095 62.0905 33.604 67.4039 37.5575C65.5821 33.9081 63.4568 29.4986 60.7242 28.2821C56.9289 26.4575 53.5891 22.9602 49.4902 21.1355ZM59.9652 59.1492L47.9721 47.7451L47.5167 47.1369L47.0613 46.6808L46.6058 46.2246C45.8468 45.7684 44.7841 45.6164 44.6323 44.704C43.8732 43.4876 42.0515 43.6397 41.1406 45.0081C47.2131 49.5698 53.2855 54.8917 59.9652 59.1492ZM86.532 37.8616C85.3175 38.3177 78.0306 37.7095 82.5849 39.9903C86.0766 41.815 89.5682 43.9438 93.2117 44.8561C91.6936 41.6629 88.8092 39.9903 86.532 37.8616ZM38.7117 86.5191C39.0153 89.2561 41.5961 93.6657 44.4805 95.0342L47.6685 89.8643C45.3913 91.5369 41.5961 88.3438 38.7117 86.5191ZM85.3175 43.3355C82.7367 42.2712 84.8621 44.3999 84.8621 44.552C87.2911 46.0725 90.0237 52.4588 92.9081 47.7451C90.6309 45.9205 88.0501 44.3999 85.3175 43.3355ZM80.156 47.8972C79.3969 48.3534 82.1295 52.3068 84.103 53.2191C84.4067 52.7629 88.961 52.915 85.3175 51.3945C83.6476 50.6342 81.8259 49.2657 80.156 47.8972ZM93.0599 40.4465C90.7827 39.5342 95.1852 44.0958 96.5515 44.0958C99.1323 44.0958 97.6142 41.3588 96.5515 41.2068C94.8816 41.2068 94.1225 40.9027 93.0599 40.4465ZM97.0069 38.0136C95.9443 36.4931 93.2117 37.2534 90.9345 37.1013C92.4526 37.8616 96.3997 39.6862 97.9178 40.2944C99.5877 40.9027 97.4624 38.7739 97.0069 38.0136ZM98.9805 37.7095C99.4359 38.926 101.106 40.4465 102.472 39.5342C106.267 36.7972 100.043 37.1013 98.525 37.7095C98.8287 37.5575 98.9805 37.5575 98.9805 37.7095ZM93.5153 98.6835C92.4526 98.6835 96.2479 101.725 98.2214 102.029C97.766 100.204 95.4888 98.6835 93.5153 98.6835ZM51.1601 19.615C50.5529 18.0944 48.7312 17.0301 48.2757 15.3575C47.5167 16.1177 47.0613 17.7903 48.5794 18.3986C49.0348 18.5506 50.5529 19.4629 51.1601 19.615ZM44.4805 44.552C46.1504 45.3123 47.0613 43.7917 45.695 42.7273C44.9359 42.1191 44.1769 40.9027 42.9624 41.3588C43.5696 43.1835 45.8468 42.2712 44.4805 44.552ZM56.4735 43.6397C55.5626 42.2712 54.0445 41.0547 52.5264 40.2944C52.9819 41.815 54.6518 43.4876 56.4735 43.6397ZM55.4108 33.1479L53.8927 32.6917C54.5 34.0602 55.7145 35.7328 57.688 35.7328C57.2326 34.5164 55.259 34.6684 55.4108 33.1479ZM41.5961 49.4177L42.5069 49.1136C42.2033 48.3534 40.9888 46.6808 39.7743 48.3534L40.6852 48.6575L41.1406 49.1136L41.5961 49.4177Z" fill="white"/>
</g>
<defs>
<clipPath id="clip0">
<rect width="109" height="111" fill="white"/>
</clipPath>
</defs>
</svg>
