<svg width="465" height="272" viewBox="0 0 465 272" fill="none" xmlns="http://www.w3.org/2000/svg">
<path d="M382.941 110.25C388.32 129.674 393.698 149.059 399.076 168.483C402.404 180.555 402.404 192.937 406.97 204.893C408.324 208.415 409.021 213.367 411.458 216.269C414.244 219.558 419.506 220.448 423.26 222.035C427.671 223.892 432.082 226.291 434.906 230.199C435.487 231.011 435.99 231.979 435.758 232.907C430.844 232.482 426.703 228.032 421.789 228.38C424.691 229.928 427.671 231.514 429.876 233.952C432.12 236.39 433.513 239.833 432.624 243.006C431.192 242.697 429.992 241.652 428.948 240.646C426.665 238.402 424.614 235.925 422.176 233.913C419.7 231.901 416.682 230.354 413.509 230.354C414.67 231.36 425.775 246.489 423.182 247.185C421.325 247.688 419.39 246.527 418.23 245.057C417.069 243.548 416.411 241.729 415.482 240.066C413.238 236.158 407.241 230.586 402.481 230.547C398.96 230.508 395.71 233.023 392.189 232.753C391.725 232.714 391.222 232.598 390.951 232.25C390.448 231.592 390.951 230.625 391.609 230.121C393.969 228.187 397.761 228.535 399.734 226.213C402.056 223.428 400.005 219.984 398.844 217.237C397.374 213.754 396.213 210.078 395.014 206.441C392.344 198.432 389.635 190.384 386.965 182.374C381.587 166.316 376.247 150.259 370.869 134.201" fill="#334758"/>
<path d="M389.21 139.734C389.597 142.056 388.474 144.571 386.54 145.848" stroke="#5B738A" stroke-width="0.823" stroke-miterlimit="10" stroke-linecap="round"/>
<path d="M392.499 150.839C391.918 153.045 390.757 155.057 389.094 156.643" stroke="#5B738A" stroke-width="0.823" stroke-miterlimit="10" stroke-linecap="round"/>
<path d="M231.883 170.031C219.037 175.68 204.527 177.808 190.752 175.061C176.977 172.314 164.131 164.536 156.121 153.006C145.016 137.064 143.894 116.479 137.471 98.1388C130.545 78.3666 116.964 62.038 96.7659 50.3139C71.5766 35.7266 43.6014 35.6879 21.7397 56.1953C13.498 63.934 7.65535 74.4198 6.45586 85.6796C8.19705 85.4474 9.93825 85.2153 11.6794 84.9831C17.4061 84.2479 23.0939 71.0922 28.3562 67.6872C31.8773 65.443 36.1336 64.553 40.2738 64.0887C67.1656 61.1867 95.0635 76.664 106.826 101.002C118.395 124.992 115.145 154.979 130.39 176.802C135.537 184.193 142.54 190.113 150.085 194.988C173.572 210.117 203.327 215.186 230.49 208.685" fill="#939EAF"/>
<path d="M210.447 175.332C206.81 187.211 207.39 200.289 211.995 211.82C211.608 211.82 211.221 211.82 210.834 211.82" stroke="#2B3846" stroke-width="1.6459" stroke-miterlimit="10"/>
<path d="M196.827 174.79C190.945 185.315 188.314 197.658 189.398 209.691" stroke="#2B3846" stroke-width="1.6459" stroke-miterlimit="10"/>
<path d="M180.343 172.353C173.495 181.949 170.322 194.137 171.599 205.861" stroke="#2B3846" stroke-width="1.6459" stroke-miterlimit="10"/>
<path d="M171.56 163.221C166.259 165.426 162.157 169.954 159.41 175.022C155.85 181.6 152.291 190.732 153.065 198.238" stroke="#2B3846" stroke-width="1.6459" stroke-miterlimit="10"/>
<path d="M164.247 155.869C156.044 160.048 150.588 163.415 145.442 171.85C141.302 178.621 137.045 184.889 138.013 192.783" stroke="#2B3846" stroke-width="1.6459" stroke-miterlimit="10"/>
<path d="M163.164 150.878C146.525 150.878 130.042 160.396 119.904 173.475" stroke="#2B3846" stroke-width="1.6459" stroke-miterlimit="10"/>
<path d="M157.785 141.127C155.347 142.056 152.678 141.94 150.046 142.094C135.614 142.907 122.419 144.493 111.469 155.095" stroke="#2B3846" stroke-width="1.6459" stroke-miterlimit="10"/>
<path d="M151.788 131.57C138.361 125.998 121.762 129.054 111.237 139.115" stroke="#2B3846" stroke-width="1.6459" stroke-miterlimit="10"/>
<path d="M149.157 115.009C144.552 112.261 139.406 110.404 134.105 109.669C129.733 109.05 125.167 109.205 121.027 110.752C116.886 112.3 113.172 115.357 111.469 119.458" stroke="#2B3846" stroke-width="1.6459" stroke-miterlimit="10"/>
<path d="M141.921 95.4693C130.932 89.1236 123.193 92.1417 113.946 98.4487C111.005 100.461 107.987 103.092 107.561 106.652" stroke="#2B3846" stroke-width="1.6459" stroke-miterlimit="10"/>
<path d="M133.873 74.3427C126.792 73.9945 119.517 75.0392 113.249 78.3668C106.981 81.6944 101.912 87.6145 100.597 94.5793" stroke="#2B3846" stroke-width="1.6459" stroke-miterlimit="10"/>
<path d="M116.809 63.6248C111.586 65.366 106.285 67.1458 101.641 70.1252C96.9982 73.1046 93.0128 77.4769 91.6585 82.8553C91.5811 83.0875 91.6198 83.4357 91.8907 83.4357C92.1615 83.4357 91.6972 83.0875 91.852 83.3196" stroke="#2B3846" stroke-width="1.6459" stroke-miterlimit="10"/>
<path d="M104.311 52.0935C97.0754 55.2277 89.4915 58.6714 84.8096 65.0171C82.4106 68.306 80.9403 72.214 80.0117 76.1607C79.7408 76.3929 79.2765 76.0059 79.4313 75.6964C79.586 75.3869 80.1664 75.5803 80.1277 75.9286" stroke="#2B3846" stroke-width="1.6459" stroke-miterlimit="10"/>
<path d="M86.6669 39.8281C83.5328 42.6527 79.5087 44.2392 76.065 46.6381C68.1329 52.2487 64.0701 62.8119 66.1595 72.2918" stroke="#2B3846" stroke-width="1.6459" stroke-miterlimit="10"/>
<path d="M63.5284 37.2356C62.0193 38.9381 60.5103 40.6019 59.1947 42.4205C53.0425 50.7782 50.7596 61.8832 53.1586 71.9822C52.7329 72.0208 52.3073 72.0982 51.8817 72.1369C51.2626 71.0535 50.6048 69.9701 49.9857 68.8867" stroke="#2B3846" stroke-width="1.6459" stroke-miterlimit="10"/>
<path d="M42.2084 35.843C42.7114 39.6737 40.9702 43.4269 40.0029 47.1801C37.9908 54.9962 39.229 63.2379 40.4672 71.2087C39.1129 71.6343 37.4878 70.6283 37.2557 69.2353" stroke="#2B3846" stroke-width="1.6459" stroke-miterlimit="10"/>
<path d="M24.332 37.1582C20.6175 51.1265 19.8823 63.1988 31.4903 74.1103" stroke="#2B3846" stroke-width="1.6459" stroke-miterlimit="10"/>
<path d="M1.00003 45.9802C2.77992 53.4093 4.63719 60.9158 8.31305 67.5711C11.215 72.8333 15.2392 77.4379 19.9984 81.075C20.1919 81.2298 20.4241 81.462 20.3467 81.6941C20.2693 81.9263 19.7663 81.7328 19.9597 81.578" stroke="#2B3846" stroke-width="1.6459" stroke-miterlimit="10"/>
<path d="M376.75 14.0196C372.533 14.7161 368.354 12.4332 364.988 9.76337C359.919 5.77796 351.755 -1.99939 344.712 0.476982C343.281 0.979995 342.004 2.17949 341.849 3.64983C341.772 4.385 341.965 5.12017 342.159 5.81665C345.873 19.398 349.82 31.3542 360.925 40.7567C362.705 42.2657 364.833 44.2004 364.252 46.4446" fill="#334758"/>
<path d="M376.75 14.0196C372.533 14.7161 368.354 12.4332 364.988 9.76337C359.919 5.77796 351.755 -1.99939 344.712 0.476982C343.281 0.979995 342.004 2.17949 341.849 3.64983C341.772 4.385 341.965 5.12017 342.159 5.81665C345.873 19.398 349.82 31.3542 360.925 40.7567C362.705 42.2657 364.833 44.2004 364.252 46.4446" fill="#334758"/>
<path d="M440.826 13.4003C446.321 10.7691 452.086 8.75709 458.045 7.44152C459.477 7.13197 461.063 6.86112 462.379 7.5576C463.849 8.29277 464.584 10.1114 464.545 11.7752C464.507 13.439 463.81 15.0254 463.114 16.5344C458.703 26.1304 453.17 43.1554 441.562 45.6318C433.436 47.373 422.254 43.8906 422.254 34.0625C422.254 30.967 423.105 27.949 423.956 24.9696" fill="#334758"/>
<path d="M360.538 232.017C358.835 230.586 357.133 229.193 355.43 227.761C357.636 230.47 359.996 233.604 359.609 237.086C359.493 237.938 359.106 238.905 358.255 239.137C357.597 239.292 356.939 238.982 356.398 238.557C354.502 237.164 353.341 235.036 352.025 233.062C347.614 226.446 340.843 220.758 333.298 218.088C327.687 216.076 319.755 215.457 319.91 207.641C319.987 204.7 321.883 202.069 324.089 200.095C325.095 199.167 326.217 198.316 327.571 198.006C328.887 197.696 330.241 197.929 331.557 198.2C343.281 200.637 355.508 207.447 364.562 215.186C369.476 219.403 373.577 224.782 375.203 231.05C369.669 231.05 364.214 228.303 360.886 223.853C363.44 226.33 366.226 229.232 366.187 232.791C366.187 233.217 366.11 233.643 365.877 233.991C365.104 235.113 363.362 234.3 362.318 233.41C361.737 232.985 361.118 232.52 360.538 232.017Z" fill="#334758"/>
<path d="M370.908 84.0934C376.557 86.8019 387.468 92.219 393.969 90.323C396.174 89.6652 395.942 88.5818 396.987 86.415C398.689 82.8552 401.321 79.7597 404.571 77.4768C409.446 74.0718 415.405 74.0331 420.319 71.1698C424.15 68.9643 428.599 65.211 431.308 61.69C434.403 57.6272 437.073 52.4423 439.511 47.9152C444.618 38.474 440.439 25.7439 432.623 19.2821C429.528 16.7284 425.929 14.7163 422.176 13.3621C407.55 8.06109 390.951 8.44802 376.634 14.4455C373.113 15.9158 369.631 17.7731 367.193 20.6751C364.407 23.964 363.169 28.259 362.318 32.4765C361.35 37.1584 360.809 41.9177 360.576 46.7157C360.422 50.4689 361.505 55.1508 359.067 58.3623C357.907 59.8714 356.282 60.8774 354.695 61.9221C353.457 62.7734 352.18 63.6633 351.29 64.8628C350.4 66.101 349.936 67.6874 350.361 69.1191C350.903 70.899 352.644 71.9437 354.192 72.911C359.919 76.4321 364.949 81.2688 370.908 84.0934Z" fill="#5B738A"/>
<path d="M263.882 232.134C248.056 229.619 234.862 224.782 227.046 210.233C225.498 207.331 223.912 204.391 222.944 201.256C221.59 197 221.358 192.473 221.01 188.023C219.191 165.001 214.277 140.74 223.757 119.691C230.683 104.33 244.69 92.954 260.129 86.144C275.567 79.334 292.438 76.6254 309.192 74.6908C318.246 73.646 326.913 72.7948 335.851 70.5506C343.59 68.6159 350.594 63.6245 358.255 62.0768C366.845 60.3356 375.938 63.4697 383.676 67.0295C389.558 69.738 402.868 74.6521 402.326 82.5068C402.172 84.751 401.32 86.8404 400.431 88.8912C389.906 113.152 373.036 134.046 360.46 157.301C359.183 159.7 357.907 162.099 357.133 164.691C355.972 168.445 355.778 172.391 354.889 176.222C352.876 184.734 345.602 193.827 339.373 199.747C334.729 204.158 329.351 207.718 323.973 211.239C314.88 217.198 305.709 223.196 295.688 227.374C285.666 231.515 274.6 233.836 263.882 232.134Z" fill="#5B738A"/>
<path d="M299.209 133.428C294.256 134.085 289.265 133.621 284.274 134.511C274.136 136.33 264.501 140.934 256.492 147.357C244.187 157.224 235.559 171.153 230.335 186.05C226.93 195.724 224.995 206.829 229.639 215.999C235.907 228.458 251.191 233.372 263.727 236.545C278.199 240.221 293.134 241.382 307.993 242.465C311.475 242.736 315.035 243.007 318.44 243.819C321.032 244.439 323.547 245.367 325.791 246.838C329.583 249.314 332.331 253.145 336.006 255.814C337.748 257.091 340.185 258.059 341.965 256.898C343.513 255.853 343.823 253.57 343.087 251.829C342.391 250.088 340.92 248.811 339.528 247.573C342.739 250.088 345.912 252.564 349.123 255.079C350.052 255.776 351.213 256.55 352.258 256.008C353.457 255.389 353.302 253.609 352.877 252.332C351.871 249.314 350.246 246.528 348.195 244.09C350.981 246.064 353.728 248.037 356.514 249.972C359.571 248.811 360.035 244.322 358.216 241.614C356.398 238.905 353.148 237.551 350.13 236.352C345.486 234.494 340.843 232.676 336.2 230.818C330.86 228.69 325.443 226.562 319.871 225.208C312.636 223.428 305.091 223.002 297.7 223.854C309.153 211.743 319.368 197.039 324.166 180.982C327.378 170.302 327.92 158.578 324.244 148.015C322.27 142.443 318.904 136.987 313.603 134.356C308.728 131.918 304.588 132.731 299.596 133.466C299.441 133.389 299.325 133.428 299.209 133.428Z" fill="#728398"/>
<path d="M414.322 23.0738C421.673 22.6481 429.218 26.4014 433.088 32.6697C435.332 36.3455 436.222 40.7953 435.719 45.0515C435.216 49.4239 435.525 53.8736 433.126 57.7816C432.237 59.2133 431.114 60.5288 429.954 61.7283C420.629 71.5564 409.33 78.7534 402.598 90.9418C400.237 95.198 397.103 98.9513 395.787 103.594C394.24 109.05 391.879 114.08 388.939 118.917C382.864 128.977 374.971 137.761 369.012 147.898C363.827 156.798 360.228 166.548 355.353 175.603C350.478 184.657 343.939 193.324 334.73 197.929C331.673 197.967 330.744 193.788 330.976 190.732C332.447 171.772 339.527 153.315 351.097 138.264C357.52 129.867 365.258 122.593 371.952 114.429C378.646 106.264 384.412 96.8618 385.805 86.3759C386.269 82.9322 386.192 79.2177 384.412 76.2383C379.227 67.6871 368.509 64.9012 364.833 54.9957C361.08 44.8194 365.762 32.3601 375.087 26.8657C383.29 22.1838 393.466 22.532 402.636 24.7376" fill="#98A8B1"/>
<path d="M390.99 50.3523C392.808 48.9206 393.659 46.7925 395.362 45.2835C396.174 44.587 397.026 43.697 397.954 43.194C397.993 43.1553 399.541 42.5749 399.463 42.7297C399.812 42.1106 400.199 41.4528 400.663 40.9111C400.74 41.9945 400.934 43.078 401.205 44.1227C401.708 43.7744 402.172 43.3875 402.598 42.9232C402.946 45.4382 403.72 47.8759 404.919 50.1201C406.622 53.2543 408.169 56.6593 409.021 60.103C409.756 63.0824 409.408 66.4874 407.279 68.7316C405.693 70.3954 403.371 71.208 401.088 71.5562C396.794 72.214 392.15 71.4014 388.784 68.7316C385.418 66.0618 383.638 61.3412 385.069 57.3171C386.075 54.3377 388.552 52.287 390.99 50.3523Z" fill="#334758"/>
<path d="M425.775 32.0889C426.897 32.7854 427.941 33.5593 428.715 34.604C430.689 37.2351 430.302 40.9497 429.257 44.0839C428.29 47.0632 426.626 50.0813 423.763 51.3582C420.861 52.6351 417.456 51.7451 414.631 50.3522C412.271 49.1527 409.988 47.5276 408.75 45.1673C407.318 42.42 407.589 38.9763 409.098 36.3065C412.58 30.309 420.125 28.5292 425.775 32.0889Z" fill="#334758"/>
<path d="M384.489 28.0649C385.688 28.3357 386.694 29.0709 387.7 29.7287C389.287 30.8121 390.873 31.9342 392.111 33.4045C393.35 34.8749 394.123 36.8482 393.814 38.7442C393.62 39.905 393.04 40.9497 392.344 41.8784C389.674 45.4768 385.147 47.721 380.697 47.3341C376.247 46.9472 372.068 43.7356 370.791 39.4794C370.443 38.3186 370.327 37.1191 370.598 35.9196C371.101 33.8302 372.842 32.2824 374.661 31.1603C377.06 29.6126 381.471 27.3297 384.489 28.0649Z" fill="#334758"/>
<path d="M419.738 37.5064C420.977 37.429 422.021 38.5124 422.679 39.5572C423.376 40.6019 423.956 41.9174 423.492 43.0782C423.027 44.1617 421.789 44.6647 420.628 44.8968C419.545 45.129 418.384 45.1677 417.455 44.6647C416.295 44.0456 415.714 42.6913 415.637 41.3757C415.56 40.0989 415.908 38.6672 416.914 37.8933C417.92 37.0808 419.661 37.1582 420.319 38.2803" fill="#001328"/>
<path d="M379.149 40.6797C378.066 39.635 377.795 37.8164 378.569 36.5395C380.001 34.1792 385.185 34.7983 385.843 37.5842C386.656 41.0279 381.394 42.8852 379.149 40.6797Z" fill="#001328"/>
<path d="M319.214 86.2595C316.66 82.9705 312.52 80.9585 308.341 80.9585" stroke="#728398" stroke-width="0.823" stroke-miterlimit="10" stroke-linecap="round"/>
<path d="M281.255 94.8501C285.357 96.7461 289.845 97.8682 294.372 98.0616" stroke="#728398" stroke-width="0.823" stroke-miterlimit="10" stroke-linecap="round"/>
<path d="M311.436 97.403C308.224 95.0814 304.316 93.7272 300.331 93.6111" stroke="#728398" stroke-width="0.823" stroke-miterlimit="10" stroke-linecap="round"/>
<path d="M266.513 92.5283C262.451 93.9987 258.581 95.9333 254.983 98.2936" stroke="#728398" stroke-width="0.823" stroke-miterlimit="10" stroke-linecap="round"/>
<path d="M245.387 111.449C242.059 111.41 238.731 112.61 236.178 114.738" stroke="#728398" stroke-width="0.823" stroke-miterlimit="10" stroke-linecap="round"/>
<path d="M267.326 109.553C263.766 110.211 260.438 112.03 257.923 114.622" stroke="#728398" stroke-width="0.823" stroke-miterlimit="10" stroke-linecap="round"/>
<path d="M248.289 124.566C245.89 124.953 243.723 126.656 242.755 128.9" stroke="#728398" stroke-width="0.823" stroke-miterlimit="10" stroke-linecap="round"/>
<path d="M281.526 114.197C283.229 112.61 285.976 112.223 288.027 113.307" stroke="#728398" stroke-width="0.823" stroke-miterlimit="10" stroke-linecap="round"/>
<path d="M271.621 118.144C269.144 119.459 266.746 120.93 264.463 122.516C263.534 123.174 262.528 124.219 262.954 125.263" stroke="#728398" stroke-width="0.823" stroke-miterlimit="10" stroke-linecap="round"/>
<path d="M230.142 153.896C229.716 155.482 229.29 157.069 228.903 158.617C228.71 159.39 228.516 160.164 228.671 160.938" stroke="#728398" stroke-width="0.823" stroke-miterlimit="10" stroke-linecap="round"/>
<path d="M246.896 142.868C246.509 144.996 246.083 147.124 245.696 149.253" stroke="#728398" stroke-width="0.823" stroke-miterlimit="10" stroke-linecap="round"/>
<path d="M231.032 129.635C230.412 132.189 229.793 134.743 229.136 137.297" stroke="#728398" stroke-width="0.823" stroke-miterlimit="10" stroke-linecap="round"/>
<path d="M237.841 138.031C236.951 139.966 235.675 141.746 234.127 143.178" stroke="#728398" stroke-width="0.823" stroke-miterlimit="10" stroke-linecap="round"/>
<path d="M396.755 21.2549C394.278 20.5197 391.841 19.3202 390.022 17.4629C388.203 15.6057 386.965 13.0519 387.159 10.4595C387.468 6.43537 418.5 7.63486 421.015 11.5816C426.703 20.4036 400.934 22.5318 396.755 21.2549Z" fill="#334758"/>
<path d="M296.462 84.0546C291.393 82.0038 285.396 82.2747 280.52 84.7511" stroke="#728398" stroke-width="0.823" stroke-miterlimit="10" stroke-linecap="round"/>
<path d="M278.082 101.699C274.368 100.77 270.189 101.97 267.519 104.755" stroke="#728398" stroke-width="0.823" stroke-miterlimit="10" stroke-linecap="round"/>
<path d="M336.548 79.9918C332.872 78.1732 328.422 78.0185 324.592 79.4888" stroke="#728398" stroke-width="0.823" stroke-miterlimit="10" stroke-linecap="round"/>
<path d="M400.469 53.8734C398.69 53.0996 396.291 53.0222 394.782 53.4091C394.24 53.5639 393.698 53.7573 393.195 54.0669C392.228 54.7247 391.725 55.9242 391.686 57.0463C391.609 59.6774 393.969 62.0377 396.639 62.2312C399.309 62.4246 401.94 60.5287 402.714 58.0523C403.371 56.0016 402.172 54.6473 400.469 53.8734Z" fill="#001328"/>
<path d="M381.161 36.1909C381.664 35.92 382.322 36.5004 382.206 37.0808C382.09 37.6612 381.51 38.0095 380.968 38.0868C380.581 38.1255 380.155 38.0094 379.962 37.6612C379.691 37.1969 380.039 36.6552 380.387 36.2296" fill="white"/>
<path d="M417.61 38.5894C417.804 38.396 418.152 38.5507 418.268 38.7829C418.384 39.015 418.268 39.3246 418.114 39.5181C417.843 39.8276 417.417 39.9824 417.03 39.8276C416.643 39.6728 416.411 39.2085 416.566 38.8603C416.721 38.4733 417.262 38.3186 417.572 38.5894" fill="white"/>
<path d="M375.822 244.903C376.247 242.156 377.331 239.331 377.369 236.7C377.408 227.452 372.107 220.255 368.857 212.13C364.988 202.495 361.66 192.628 358.681 182.684C352.877 163.067 348.698 143.023 345.757 122.787C344.983 117.486 344.364 112.108 345.293 106.845C346.221 101.583 348.814 96.3981 353.264 93.4574C365.955 85.0997 378.337 99.6096 377.215 111.914C376.634 118.182 374.622 124.373 373.036 130.409C371.488 136.175 371.101 140.624 371.411 146.738C372.146 162.525 374.39 177.499 378.84 192.628C382.013 203.385 383.522 214.529 386.54 225.324C387.817 229.89 387.778 235.655 390.603 239.641C393.698 244.013 397.722 241.498 402.327 242.349C401.243 243.51 399.695 244.245 398.109 244.555C397.645 244.632 397.026 244.825 396.987 245.29C396.948 245.677 397.335 245.986 397.722 246.18C403.41 249.391 409.794 254.228 413.857 259.374C414.747 260.496 415.56 262.044 414.825 263.243C413.354 264.211 411.497 262.895 410.22 261.696C407.628 259.219 405.499 257.169 402.404 255.544C399.347 253.918 394.046 252.874 391.647 250.397C397.064 255.698 404.029 260.806 404.648 268.97C402.752 269.512 400.895 267.964 399.812 266.3C396.948 261.967 392.266 257.246 387.623 254.77C389.983 256.008 392.847 262.857 393.505 265.333C393.93 266.958 394.008 268.777 393.118 270.208C392.228 271.64 390.138 272.375 388.784 271.369C387.623 270.518 387.468 268.931 387.198 267.538C385.727 259.684 376.866 255.389 375.822 248.269C375.59 247.147 375.667 246.064 375.822 244.903Z" fill="#334758"/>
<path d="M358.062 107.619C356.359 107.503 354.618 107.89 353.148 108.703" stroke="#5B738A" stroke-width="0.7748" stroke-miterlimit="10" stroke-linecap="round"/>
<path d="M358.023 115.01C355.237 115.396 352.606 116.751 350.71 118.801" stroke="#5B738A" stroke-width="0.7748" stroke-miterlimit="10" stroke-linecap="round"/>
<path d="M358.1 124.799C355.314 125.186 352.645 126.578 350.71 128.629" stroke="#5B738A" stroke-width="0.7748" stroke-miterlimit="10" stroke-linecap="round"/>
<path d="M359.609 136.948C357.21 137.645 354.927 138.69 352.838 140.083" stroke="#5B738A" stroke-width="0.7748" stroke-miterlimit="10" stroke-linecap="round"/>
</svg>
