<svg width="67" height="70" viewBox="0 0 67 70" fill="none" xmlns="http://www.w3.org/2000/svg">
<path d="M50.5826 47.499C34.1765 62.6142 14.0287 61.4734 10.5748 61.1883C9.99918 58.6215 5.39397 36.9468 20.0731 18.6944C37.3426 -2.40995 64.686 0.727177 66.1252 1.01237C66.9886 3.29392 70.4425 29.2466 50.5826 47.499Z" fill="#F3CF0C"/>
<path d="M50.5827 47.499C34.1766 62.6143 14.0289 61.4735 10.575 61.1883C18.9219 51.4917 27.5567 41.7951 36.1914 32.3837C45.9775 21.8316 56.0514 11.2794 66.1253 1.29761C66.9888 3.29396 70.4427 29.2466 50.5827 47.499Z" fill="#E4A007"/>
<path d="M1.65229 69.7441C1.36447 69.7441 1.07664 69.7441 1.07664 69.7441C0.788818 69.459 0.788818 69.1738 0.788818 69.1738C11.1505 58.9068 21.5123 48.3546 31.5862 37.8024C41.0844 28.1059 50.2948 18.1241 59.5052 8.42749C50.8705 18.4093 41.9479 28.3911 33.0253 38.0876C22.9514 48.6398 12.3018 59.192 1.65229 69.7441Z" fill="#AF5318"/>
<path d="M59.793 14.4163C59.793 14.4163 58.0661 15.2718 55.1878 16.6978C53.1731 17.5534 51.4461 18.409 50.2948 18.6942C51.4461 18.409 53.4609 17.8386 55.4757 16.983C57.7783 15.8422 59.793 14.4163 59.793 14.4163Z" fill="#AF5318"/>
<path d="M59.2174 20.6909C59.2174 20.4057 56.0514 22.1168 51.1583 24.1132C47.4166 25.5392 44.5383 26.6799 42.5236 27.2503C44.8262 26.9651 48.2801 26.1096 52.0218 24.6836C56.0514 22.6872 59.2174 20.6909 59.2174 20.6909Z" fill="#AF5318"/>
<path d="M56.3392 28.3911C56.3392 28.1059 52.3097 29.817 45.6897 31.8134C41.0845 33.2394 37.0549 34.3801 34.4645 34.9505C37.3427 34.6653 41.6601 34.0949 46.5531 32.669C52.0218 30.9578 56.3392 28.6763 56.3392 28.3911Z" fill="#AF5318"/>
<path d="M49.4312 38.088C49.4312 37.8028 45.4017 39.2288 38.4939 40.6547C33.6008 41.7955 29.8591 42.3659 26.9808 42.6511C29.8591 42.6511 34.1765 42.6511 39.3573 41.5103C45.1138 40.0843 49.4312 38.3732 49.4312 38.088Z" fill="#AF5318"/>
<path d="M41.0844 47.214C41.0844 46.9288 37.0549 48.3547 30.1471 49.7807C25.254 50.9215 21.5123 51.4919 18.634 51.7771C21.5123 51.7771 25.8297 51.7771 31.0105 50.6363C36.767 49.4955 41.3722 47.4991 41.0844 47.214Z" fill="#AF5318"/>
<path d="M54.3244 9.2832C54.3244 9.2832 53.4609 10.9944 52.3096 14.1315C51.4461 16.1278 50.8705 18.1242 50.2948 19.265C50.5826 17.839 50.8704 15.8427 52.0217 13.8463C52.8852 10.9944 54.0365 8.99801 54.3244 9.2832Z" fill="#AF5318"/>
<path d="M47.9922 9.85352C48.2801 9.85352 46.5531 12.9906 44.8262 18.1241C43.6748 21.8317 42.5235 24.9688 42.2357 26.9651C42.5235 24.6836 43.0992 21.2613 44.5383 17.2686C45.6896 13.2758 47.7044 9.85352 47.9922 9.85352Z" fill="#AF5318"/>
<path d="M40.221 12.9902C40.5088 12.9902 38.7819 16.9829 37.0549 23.5424C35.9036 28.1055 35.0401 32.0982 34.4645 34.665C34.4645 31.813 35.0401 27.5351 36.4793 22.4016C37.9184 17.2681 39.9332 12.9902 40.221 12.9902Z" fill="#AF5318"/>
<path d="M31.2983 20.9758C31.5861 20.9758 30.4348 25.2537 29.2835 31.8132C28.42 36.6615 27.8444 40.6542 27.8444 43.2209C27.5565 40.369 27.5565 36.0911 28.7078 30.9576C29.2835 25.5389 31.0104 20.9758 31.2983 20.9758Z" fill="#AF5318"/>
<path d="M22.0879 31.5278C22.3757 31.5278 21.2244 35.8057 20.0731 42.3652C19.2096 47.2135 18.634 51.2062 18.634 53.7729C18.0583 50.6358 18.0583 46.3579 18.9218 41.2244C20.0731 35.8057 21.8001 31.5278 22.0879 31.5278Z" fill="#AF5318"/>
</svg>
